<svg width="16" height="11" viewBox="0 0 16 11" fill="none" xmlns="http://www.w3.org/2000/svg">
<path d="M7.99984 0.146973C4.6665 0.146973 1.81984 2.22031 0.666504 5.14697C1.81984 8.07364 4.6665 10.147 7.99984 10.147C11.3332 10.147 14.1798 8.07364 15.3332 5.14697C14.1798 2.22031 11.3332 0.146973 7.99984 0.146973ZM7.99984 8.48031C6.15984 8.48031 4.6665 6.98697 4.6665 5.14697C4.6665 3.30697 6.15984 1.81364 7.99984 1.81364C9.83984 1.81364 11.3332 3.30697 11.3332 5.14697C11.3332 6.98697 9.83984 8.48031 7.99984 8.48031ZM7.99984 3.14697C6.89317 3.14697 5.99984 4.04031 5.99984 5.14697C5.99984 6.25364 6.89317 7.14697 7.99984 7.14697C9.1065 7.14697 9.99984 6.25364 9.99984 5.14697C9.99984 4.04031 9.1065 3.14697 7.99984 3.14697Z" fill="#5865F2"/>
</svg>
