<?xml version="1.0" encoding="utf-8"?>
<!-- Generator: Adobe Illustrator 27.1.1, SVG Export Plug-In . SVG Version: 6.00 Build 0)  -->
<svg version="1.1" id="Layer_1" xmlns="http://www.w3.org/2000/svg" xmlns:xlink="http://www.w3.org/1999/xlink" x="0px" y="0px"
	 viewBox="0 0 459.03 422.34" style="enable-background:new 0 0 459.03 422.34;" xml:space="preserve">
<style type="text/css">
	.st0{fill:#00E59B;}
	.st1{fill:url(#SVGID_1_);}
	.st2{fill:url(#SVGID_00000029009338676675532730000014314924268630423943_);}
	.st3{fill:url(#SVGID_00000122714567465485428740000017448867696948334770_);}
	.st4{fill:#FFFFFF;}
	.st5{fill:url(#SVGID_00000121251244126207934530000003057658897957599115_);}
	.st6{fill:url(#SVGID_00000137828128621144583080000001354365734586513577_);}
	.st7{fill:url(#SVGID_00000029755017121265816010000016648835862118775738_);}
	.st8{fill:url(#SVGID_00000154397857703760612640000000039052127504897457_);}
	.st9{fill:url(#SVGID_00000034801757367881409980000012529273115391744655_);}
	.st10{fill:url(#SVGID_00000160149463159303757960000009342806773225969805_);}
	.st11{fill:url(#SVGID_00000034791769472288636970000000041999749012625025_);}
	.st12{fill:url(#SVGID_00000168818923917830733990000018266409174482382761_);}
	.st13{fill:url(#SVGID_00000101084248107732593420000017342421632799000963_);}
</style>
<g>
	<polygon points="16.04,292.9 220.11,408.29 220.11,349.87 68.08,262.34 68.08,238.96 220.11,325.21 220.11,266.1 16.04,147.48 	"/>
	<polygon class="st0" points="238.92,266.12 238.92,408.31 442.99,292.92 442.99,147.5 	"/>
	<polygon class="st0" points="228.26,14.03 25.71,132.9 228.26,252.05 293.38,214.23 293.38,178.67 228.26,137.72 228.26,191.53 
		129.76,133.06 228.26,78.54 319.78,135.06 302.86,145.82 357.19,176.41 433.33,133.06 	"/>
	<linearGradient id="SVGID_1_" gradientUnits="userSpaceOnUse" x1="25.7054" y1="73.5459" x2="228.2567" y2="73.5459">
		<stop  offset="0" style="stop-color:#FFFFFF;stop-opacity:0.08"/>
		<stop  offset="1" style="stop-color:#006838"/>
	</linearGradient>
	<polygon class="st1" points="228.26,78.54 228.26,14.03 25.71,132.9 129.76,133.06 	"/>
	
		<linearGradient id="SVGID_00000054223597466431393710000017295021597648180645_" gradientUnits="userSpaceOnUse" x1="238.9247" y1="277.9024" x2="442.9926" y2="277.9024">
		<stop  offset="0" style="stop-color:#FFFFFF;stop-opacity:0.08"/>
		<stop  offset="1" style="stop-color:#006838"/>
	</linearGradient>
	<polygon style="fill:url(#SVGID_00000054223597466431393710000017295021597648180645_);" points="442.99,147.5 238.92,408.31 
		442.99,292.92 	"/>
	
		<linearGradient id="SVGID_00000058551630322347227940000001439267211387411647_" gradientUnits="userSpaceOnUse" x1="16.0421" y1="236.3416" x2="220.1102" y2="236.3416">
		<stop  offset="0" style="stop-color:#FFFFFF;stop-opacity:0.08"/>
		<stop  offset="0.9659" style="stop-color:#939598;stop-opacity:0.97"/>
		<stop  offset="1" style="stop-color:#006838"/>
	</linearGradient>
	<polygon style="fill:url(#SVGID_00000058551630322347227940000001439267211387411647_);" points="220.11,325.21 16.04,147.48 
		16.04,292.9 68.08,262.34 68.08,238.96 	"/>
</g>
</svg>
