<!-- <svg xmlns="http://www.w3.org/2000/svg"   width="100%" xmlns:xlink="http://www.w3.org/1999/xlink" version="1.1" x="0px" y="0px" viewBox="0 0 100 100" style="enable-background:new 0 0 100 100;"  xml:space="preserve"><path fill="#000"  d="M50,2.02C23.61,2.02,2.02,23.61,2.02,50S23.61,97.98,50,97.98S97.98,76.39,97.98,50S76.39,2.02,50,2.02z M50,16.41  c8.16,0,14.4,6.24,14.4,14.4S58.16,45.2,50,45.2s-14.4-6.24-14.4-14.4S41.84,16.41,50,16.41z M50,84.55  c-12,0-22.55-6.24-28.79-15.35c0-9.6,19.19-14.87,28.79-14.87s28.79,5.28,28.79,14.87C72.55,78.31,62,84.55,50,84.55z"/></svg> -->

<!-- 

<svg version="1.1" id="Layer_1" xmlns="http://www.w3.org/2000/svg" xmlns:xlink="http://www.w3.org/1999/xlink" x="0px" y="0px"
	 width="100%" viewBox="0 0 600 600" enable-background="new 0 0 600 600" xml:space="preserve">
<path fill="#000000" opacity="1.000000" stroke="none" 
	d="
M382.000000,601.000000 
	C254.666672,601.000000 127.833336,601.000000 1.000000,601.000000 
	C1.000000,401.000000 1.000000,201.000000 1.000000,1.000000 
	C201.000000,1.000000 401.000000,1.000000 601.000000,1.000000 
	C601.000000,201.000000 601.000000,401.000000 601.000000,601.000000 
	C528.166687,601.000000 455.333344,601.000000 382.000000,601.000000 
M410.035767,434.487915 
	C415.833069,443.499084 421.630402,452.510254 427.432922,461.517914 
	C481.355774,422.986267 525.474121,336.048279 497.109741,242.401382 
	C469.457123,151.104645 383.457611,91.956451 289.710327,97.466553 
	C191.117783,103.261436 112.558739,177.646408 99.177216,272.703278 
	C92.353889,321.173370 101.983849,366.538727 127.354744,408.406067 
	C140.030960,429.324554 156.111893,447.262054 176.000092,462.428345 
	C198.454239,416.143311 235.144547,390.414673 284.972900,384.856781 
	C334.681091,379.312347 376.849335,395.223053 410.035767,434.487915 
z"/>
<path fill="#424242" opacity="1.000000" stroke="none" 
	d="
M409.803284,434.218323 
	C376.849335,395.223053 334.681091,379.312347 284.972900,384.856781 
	C235.144547,390.414673 198.454239,416.143311 176.000092,462.428345 
	C156.111893,447.262054 140.030960,429.324554 127.354744,408.406067 
	C101.983849,366.538727 92.353889,321.173370 99.177216,272.703278 
	C112.558739,177.646408 191.117783,103.261436 289.710327,97.466553 
	C383.457611,91.956451 469.457123,151.104645 497.109741,242.401382 
	C525.474121,336.048279 481.355774,422.986267 427.430298,461.519653 
	C421.630402,452.510254 415.833069,443.499084 409.803284,434.218323 
M308.895325,213.526428 
	C303.584564,213.573212 298.216888,213.132401 292.972198,213.744812 
	C255.117813,218.164902 226.788574,249.498108 225.951324,287.603882 
	C225.140045,324.527771 252.843155,357.217285 289.952332,363.124725 
	C335.316498,370.346191 377.288635,334.539307 377.041626,288.827789 
	C376.832397,250.100815 349.036682,219.018417 308.895325,213.526428 
z"/>
<path fill="#000000" opacity="1.000000" stroke="none" 
	d="
M309.342651,213.575195 
	C349.036682,219.018417 376.832397,250.100815 377.041626,288.827789 
	C377.288635,334.539307 335.316498,370.346191 289.952332,363.124725 
	C252.843155,357.217285 225.140045,324.527771 225.951324,287.603882 
	C226.788574,249.498108 255.117813,218.164902 292.972198,213.744812 
	C298.216888,213.132401 303.584564,213.573212 309.342651,213.575195 
z"/>
</svg> -->
<!-- <svg xmlns="http://www.w3.org/2000/svg" width="28" height="28" viewBox="0 0 24 24" fill="none" stroke="#000000" stroke-width="2" stroke-linecap="round" stroke-linejoin="round"><path fill="#000000" d="M5.52 19c.64-2.2 1.84-3 3.22-3h6.52c1.38 0 2.58.8 3.22 3"/><circle fill="#000000" cx="12" cy="10" r="3"/><circle  cx="12" cy="12" r="10"/></svg>  -->

<svg width="800px"  height="800px" viewBox="0 0 48 48" xmlns="http://www.w3.org/2000/svg">
  <title>user</title>
  <g id="Layer_2" data-name="Layer 2">
    <g id="invisible_box" data-name="invisible box">
      <rect width="48" height="48" fill="#292F34"/>
    </g>
    <g id="icons_Q2" data-name="icons Q2">
      <path d="M24,2A22,22,0,1,0,46,24,21.9,21.9,0,0,0,24,2Zm0,8a8,8,0,1,1-8,8A8,8,0,0,1,24,10Zm0,32a18.2,18.2,0,0,1-12.2-4.8A26.4,26.4,0,0,1,24,34a26.4,26.4,0,0,1,12.2,3.2A18.2,18.2,0,0,1,24,42Z"/>
    </g>
  </g>
</svg>