<?xml version="1.0" encoding="utf-8"?>
<!-- Generator: Adobe Illustrator 27.1.1, SVG Export Plug-In . SVG Version: 6.00 Build 0)  -->
<svg version="1.1" id="Layer_1" xmlns="http://www.w3.org/2000/svg" xmlns:xlink="http://www.w3.org/1999/xlink" x="0px" y="0px"
	 viewBox="0 0 520.32 86.1" style="enable-background:new 0 0 520.32 86.1;" xml:space="preserve">
<style type="text/css">
	.st0{fill:#00E59B;}
	.st1{fill:url(#SVGID_1_);}
	.st2{fill:url(#SVGID_00000015340690085630970780000004494024737735228562_);}
	.st3{fill:url(#SVGID_00000130635571953030805690000006918591590172532358_);}
	.st4{fill:#FFFFFF;}
	.st5{fill:url(#SVGID_00000048468094527169561580000007853602369982246063_);}
	.st6{fill:url(#SVGID_00000003078545690256206580000016050242913479375793_);}
	.st7{fill:url(#SVGID_00000081627604093958676030000006276862239295975082_);}
	.st8{fill:url(#SVGID_00000091715288382693904380000000792154572757642659_);}
	.st9{fill:url(#SVGID_00000144311362626419021650000008750100988912788127_);}
	.st10{fill:url(#SVGID_00000031188029317422479970000011197336515139914163_);}
	.st11{fill:url(#SVGID_00000150822507588016389330000006869100074138179985_);}
	.st12{fill:url(#SVGID_00000160900975494084752960000005070210962445833868_);}
	.st13{fill:url(#SVGID_00000160159943776649353190000013619307206443941794_);}
</style>
<g>
	<g>
		<path d="M106.63,33.62c1.11-3.15,3.13-4.72,6.06-4.72h21.87L133,35.49v-0.06h-7.04h-12.08c-0.16,0-0.32,0.06-0.49,0.19
			c-0.17,0.13-0.29,0.3-0.36,0.51l-3.21,13.74c-0.04,0.27,0.02,0.5,0.19,0.7c0.17,0.2,0.39,0.3,0.66,0.3h11.02
			c0.16,0,0.32-0.06,0.48-0.19c0.16-0.13,0.25-0.3,0.27-0.51l0.89-3.76h-10.96l1.45-6.51h12.1h6.04c-0.62,2.68-1.43,6.11-2.43,10.3
			c-0.18,0.81-0.38,1.64-0.6,2.49c-1.11,3.15-3.13,4.72-6.08,4.72h-13.98c-1.99,0-3.6-0.74-4.84-2.21
			c-1.24-1.47-1.66-3.18-1.27-5.11L106.63,33.62z"/>
		<path d="M136.45,33.62c1.12-3.15,3.08-4.72,5.89-4.72h20.78l-6.91,28.51h-6.76l1.91-7.87l3.45-14.1h-11.49
			c-0.16,0-0.32,0.06-0.48,0.19c-0.16,0.13-0.27,0.3-0.33,0.51l-1.68,6.89h10.15l-1.6,6.53h-10.13l-1.91,7.85h-6.72L136.45,33.62z"
			/>
		<path d="M186.34,57.4c-0.43,0-0.83,0-1.19,0c-0.36,0-0.7,0-1,0c-0.31,0-0.58,0-0.83,0c-0.25,0-0.47,0-0.67,0c-0.2,0-0.38,0-0.53,0
			c-0.16,0-0.29,0-0.41,0c-0.12,0-0.22,0-0.3,0c-0.08,0-0.15,0-0.2,0s-0.1,0-0.14,0c-0.04,0-0.06,0-0.07,0c-0.01,0-0.03,0-0.04,0
			c0.67-2.62,1.23-4.85,1.69-6.69s0.83-3.34,1.12-4.52c0.28-1.18,0.5-2.09,0.65-2.76c0.15-0.66,0.28-1.24,0.39-1.73
			c-3.35,5.01-6.49,9.54-9.42,13.61c-1.01,0-1.91-0.31-2.7-0.95c-0.79-0.63-1.31-1.46-1.55-2.48c-0.16-0.75-0.3-1.46-0.43-2.12
			c-0.13-0.66-0.25-1.27-0.36-1.84c-0.11-0.57-0.22-1.09-0.31-1.56c-0.09-0.47-0.18-0.91-0.26-1.31c-0.08-0.4-0.15-0.76-0.21-1.08
			c-0.06-0.32-0.12-0.61-0.17-0.86c-0.05-0.26-0.09-0.48-0.13-0.67c-0.04-0.19-0.07-0.36-0.1-0.5c-0.03-0.14-0.05-0.27-0.07-0.37
			c-0.02-0.11-0.04-0.19-0.05-0.26c-0.01-0.06-0.03-0.11-0.03-0.15C169,41.14,169,41.12,169,41.11c-0.67,2.74-1.23,5.06-1.69,6.97
			c-0.46,1.91-0.83,3.47-1.12,4.7c-0.28,1.23-0.5,2.18-0.65,2.85c-0.15,0.67-0.28,1.27-0.39,1.78c-0.5,0-0.96,0-1.39,0
			c-0.43,0-0.83,0-1.19,0c-0.36,0-0.7,0-1,0s-0.58,0-0.84,0c-0.26,0-0.48,0-0.68,0c-0.2,0-0.38,0-0.53,0c-0.16,0-0.29,0-0.41,0
			c-0.12,0-0.22,0-0.31,0c-0.08,0-0.16,0-0.21,0c-0.06,0-0.1,0-0.14,0s-0.06,0-0.07,0c-0.01,0-0.03,0-0.04,0
			c0.43-1.8,0.82-3.48,1.19-5.04c0.37-1.56,0.71-3,1.01-4.33c0.3-1.33,0.59-2.55,0.85-3.66c0.26-1.11,0.5-2.13,0.72-3.05
			c0.22-0.92,0.42-1.76,0.6-2.5c0.18-0.74,0.33-1.41,0.47-2c0.13-0.59,0.26-1.11,0.36-1.55c0.11-0.45,0.2-0.84,0.28-1.17
			c0.08-0.33,0.15-0.61,0.2-0.84c0.06-0.23,0.1-0.41,0.13-0.56c0.03-0.15,0.05-0.26,0.07-0.34c0.02-0.08,0.03-0.13,0.04-0.17
			c0.01-0.04,0.01-0.06,0.02-0.06c0.01-0.01,0-0.01-0.01-0.01c0.78-2.14,2.18-3.21,4.19-3.21c0.44,0,0.83,0,1.18,0
			c0.35,0,0.65,0,0.91,0c0.26,0,0.49,0,0.69,0c0.2,0,0.37,0,0.51,0c0.14,0,0.26,0,0.35,0c0.09,0,0.16,0,0.21,0c0.05,0,0.09,0,0.12,0
			c0.03,0,0.05,0,0.06,0c0.18,0.89,0.36,1.74,0.52,2.53c0.16,0.79,0.32,1.54,0.46,2.23c0.14,0.7,0.28,1.35,0.4,1.97
			c0.13,0.62,0.24,1.19,0.35,1.72c0.11,0.53,0.21,1.03,0.3,1.48c0.09,0.45,0.18,0.88,0.26,1.27c0.08,0.39,0.15,0.74,0.21,1.06
			c0.06,0.32,0.12,0.61,0.17,0.87c0.05,0.26,0.1,0.5,0.14,0.71c0.04,0.21,0.08,0.4,0.11,0.56c0.03,0.16,0.06,0.31,0.09,0.44
			c0.03,0.13,0.05,0.23,0.06,0.32c0.01,0.08,0.02,0.16,0.03,0.22c0.01,0.06,0.01,0.11,0.02,0.15c0.01,0.03,0.01,0.06,0.02,0.07
			c0.01,0.01,0.01,0.03,0.01,0.04h-0.02c0.94-1.33,1.79-2.56,2.57-3.68c0.78-1.12,1.49-2.14,2.14-3.05
			c0.64-0.91,1.23-1.74,1.74-2.48c0.52-0.74,0.98-1.4,1.39-1.98c0.41-0.58,0.77-1.09,1.08-1.53c0.31-0.44,0.58-0.82,0.81-1.13
			s0.42-0.58,0.59-0.8c0.16-0.22,0.29-0.39,0.39-0.52c0.1-0.13,0.17-0.23,0.22-0.3c0.05-0.07,0.1-0.13,0.16-0.19
			c0.78,0,1.48,0,2.11,0c0.62,0,1.18,0,1.67,0c0.49,0,0.93,0,1.31,0s0.71,0,0.99,0s0.51,0,0.7,0c0.19,0,0.35,0,0.47,0
			c0.12,0,0.22,0,0.29,0c0.07,0,0.12,0,0.15,0c0.03,0,0.05,0,0.06,0c-0.45,1.9-0.87,3.68-1.26,5.33c-0.38,1.65-0.74,3.19-1.08,4.62
			c-0.34,1.43-0.65,2.75-0.94,3.97c-0.28,1.22-0.55,2.34-0.79,3.36s-0.46,1.95-0.66,2.79c-0.2,0.84-0.38,1.6-0.54,2.29
			c-0.16,0.69-0.31,1.3-0.44,1.84c-0.13,0.54-0.24,1.01-0.33,1.43c-0.09,0.41-0.17,0.77-0.24,1.07c-0.07,0.3-0.13,0.56-0.18,0.77
			c-0.05,0.21-0.09,0.38-0.13,0.51c-0.04,0.14-0.06,0.24-0.07,0.32c-0.01,0.08-0.03,0.13-0.03,0.16c-0.01,0.03-0.02,0.05-0.03,0.06
			C187.24,57.4,186.78,57.4,186.34,57.4z"/>
		<path d="M195.69,33.62c1.11-3.15,3.13-4.72,6.06-4.72h19.66l-1.51,6.53h-11.44h-5.51c-0.16,0-0.32,0.06-0.49,0.19
			c-0.17,0.13-0.29,0.3-0.36,0.51l-0.87,3.76h11.55l-1.45,6.51h-11.61l-0.81,3.47c-0.04,0.27,0.02,0.5,0.19,0.7
			c0.17,0.2,0.38,0.3,0.64,0.3h8.79v0.02h7.79c-0.45,1.99-0.96,4.15-1.51,6.51h-16.81c-2,0-3.62-0.74-4.86-2.21
			c-1.24-1.47-1.66-3.18-1.27-5.11L195.69,33.62z"/>
		<path class="st0" d="M223.82,33.62c1.13-3.15,3.17-4.72,6.11-4.72h19.66L248,35.43h-11.44h-5.51c-0.16,0-0.32,0.06-0.49,0.19
			c-0.17,0.13-0.29,0.3-0.36,0.51l-3.32,13.74c-0.04,0.27,0.02,0.5,0.19,0.7c0.17,0.2,0.39,0.3,0.66,0.3h8.76v0.02h7.81
			c-0.48,1.99-1.01,4.15-1.57,6.51H225.9c-1.99,0-3.59-0.74-4.83-2.21c-1.23-1.47-1.65-3.18-1.23-5.11L223.82,33.62z"/>
		<path class="st0" d="M259.47,48.17h-4.49c0.01-0.01,0.02-0.03,0.02-0.04c0-0.01,0-0.02,0-0.03c0-0.01,0-0.01,0-0.02s0,0,0,0.01
			c0,0.01,0,0.04-0.01,0.07c-0.01,0.03-0.02,0.08-0.03,0.14c-0.01,0.06-0.03,0.13-0.05,0.22c-0.02,0.09-0.05,0.2-0.09,0.33
			c-0.04,0.13-0.07,0.28-0.11,0.45c-0.04,0.17-0.08,0.37-0.13,0.58c-0.05,0.22-0.11,0.47-0.17,0.76c-0.06,0.28-0.13,0.59-0.21,0.93
			c-0.08,0.33-0.17,0.7-0.27,1.11c-0.1,0.4-0.2,0.85-0.31,1.33c-0.11,0.48-0.22,1-0.35,1.56c-0.13,0.56-0.26,1.16-0.4,1.8h-7.08
			l5.62-23.76c1.11-3.13,3.11-4.7,6.02-4.7h13.85c1.97,0,3.57,0.74,4.8,2.21c1.23,1.48,1.64,3.18,1.24,5.11
			c-0.47,2.11-1.01,4.53-1.62,7.25c-0.34,1.38-1.07,2.5-2.18,3.38c-1.11,0.88-2.4,1.32-3.86,1.32h-2.6l5.57,9.23h-7.57L259.47,48.17
			z M269.25,40.96l1.08-4.55c0.04-0.26-0.02-0.49-0.19-0.69c-0.17-0.21-0.38-0.31-0.64-0.31h-10.93c-0.16,0-0.32,0.07-0.49,0.2
			c-0.17,0.13-0.28,0.3-0.34,0.5l-1.19,5.45h11.85C268.83,41.55,269.11,41.35,269.25,40.96z"/>
		<path class="st0" d="M280.06,33.62c1.11-3.15,3.13-4.72,6.06-4.72h19.66l-1.51,6.53h-11.44h-5.51c-0.16,0-0.32,0.06-0.49,0.19
			c-0.17,0.13-0.29,0.3-0.36,0.51l-0.87,3.76h11.55l-1.45,6.51h-11.61l-0.81,3.47c-0.04,0.27,0.02,0.5,0.19,0.7
			c0.17,0.2,0.38,0.3,0.64,0.3h8.79v0.02h7.79c-0.45,1.99-0.96,4.15-1.51,6.51h-16.81c-2,0-3.62-0.74-4.86-2.21
			c-1.24-1.47-1.66-3.18-1.27-5.11L280.06,33.62z"/>
		<path class="st0" d="M307.84,33.62c1.12-3.15,3.08-4.72,5.89-4.72h20.78L327.6,57.4h-6.76l1.91-7.87l3.45-14.1h-11.49
			c-0.16,0-0.32,0.06-0.48,0.19c-0.16,0.13-0.27,0.3-0.33,0.51l-1.68,6.89h10.15l-1.6,6.53h-10.13l-1.91,7.85h-6.72L307.84,33.62z"
			/>
		<path class="st0" d="M344.69,35.38h-9.44l1.6-6.49h25.29l-1.6,6.49h-9.17l-4.66,22.02h-6.76L344.69,35.38z"/>
		<path class="st0" d="M363.64,33.62c1.25-3.15,3.42-4.72,6.53-4.72c0.01,0,0.04,0,0.06,0c0.03,0,0.08,0,0.16,0
			c0.08,0,0.18,0,0.32,0c0.13,0,0.31,0,0.52,0c0.21,0,0.47,0,0.78,0c0.3,0,0.67,0,1.08,0c0.42,0,0.9,0,1.45,0c0.55,0,1.16,0,1.85,0
			s1.46,0,2.31,0c0.85,0,1.79,0,2.82,0c1.03,0,2.16,0,3.39,0c2.1,0,3.8,0.74,5.12,2.21c1.31,1.48,1.76,3.18,1.35,5.11
			c0,0.01-0.01,0.04-0.02,0.09c-0.01,0.04-0.03,0.1-0.05,0.18c-0.02,0.08-0.05,0.2-0.09,0.35c-0.04,0.16-0.08,0.35-0.14,0.59
			c-0.06,0.23-0.13,0.52-0.21,0.86c-0.09,0.34-0.18,0.74-0.3,1.21c-0.11,0.47-0.24,1.01-0.39,1.62c-0.15,0.61-0.32,1.3-0.5,2.06
			c-0.18,0.77-0.39,1.62-0.63,2.57c-0.23,0.95-0.49,2-0.77,3.16s-0.59,2.41-0.93,3.78c-1.12,3.15-3.29,4.72-6.51,4.72
			c-0.01,0-0.04,0-0.07,0c-0.04,0-0.09,0-0.16,0c-0.07,0-0.17,0-0.31,0c-0.13,0-0.31,0-0.52,0c-0.21,0-0.47,0-0.77,0
			c-0.3,0-0.66,0-1.07,0c-0.42,0-0.9,0-1.44,0c-0.54,0-1.15,0-1.83,0s-1.45,0-2.3,0c-0.85,0-1.79,0-2.81,0c-1.02,0-2.14,0-3.36,0
			c-2.16,0-3.89-0.74-5.19-2.21c-1.3-1.47-1.77-3.18-1.38-5.11c0-0.01,0-0.04,0.01-0.08c0.01-0.04,0.02-0.1,0.04-0.18
			c0.02-0.08,0.05-0.19,0.09-0.35c0.04-0.16,0.09-0.35,0.15-0.59c0.06-0.23,0.13-0.52,0.21-0.86c0.08-0.34,0.17-0.75,0.29-1.21
			c0.11-0.47,0.24-1.01,0.39-1.62c0.15-0.61,0.32-1.3,0.51-2.06s0.4-1.62,0.63-2.57c0.23-0.95,0.48-2,0.77-3.16
			C363.01,36.24,363.31,34.98,363.64,33.62z M379.59,50.87c0.44,0,0.74-0.23,0.89-0.7c0-0.01,0-0.03,0.01-0.06
			c0.01-0.03,0.02-0.08,0.03-0.15c0.01-0.07,0.04-0.17,0.07-0.3c0.04-0.13,0.07-0.29,0.12-0.48c0.04-0.19,0.1-0.43,0.17-0.72
			c0.07-0.29,0.16-0.63,0.26-1.01c0.1-0.38,0.21-0.83,0.33-1.34c0.12-0.51,0.26-1.09,0.41-1.73c0.16-0.65,0.33-1.36,0.53-2.16
			c0.2-0.79,0.41-1.67,0.65-2.63c0.23-0.96,0.49-2.01,0.78-3.16c0.04-0.27-0.01-0.5-0.17-0.7c-0.16-0.2-0.4-0.3-0.72-0.3
			c-0.01,0-0.04,0-0.07,0s-0.09,0-0.17,0c-0.08,0-0.18,0-0.32,0c-0.13,0-0.31,0-0.53,0c-0.22,0-0.48,0-0.79,0c-0.31,0-0.67,0-1.1,0
			s-0.91,0-1.47,0c-0.55,0-1.18,0-1.88,0c-0.7,0-1.49,0-2.35,0s-1.82,0-2.85,0c-0.45,0-0.75,0.23-0.89,0.7c0,0.01,0,0.04-0.01,0.06
			c-0.01,0.03-0.02,0.08-0.04,0.15c-0.02,0.07-0.05,0.17-0.07,0.3c-0.03,0.13-0.07,0.29-0.12,0.48s-0.11,0.43-0.18,0.72
			c-0.07,0.29-0.15,0.63-0.24,1.01c-0.09,0.38-0.2,0.83-0.32,1.34c-0.12,0.51-0.26,1.09-0.43,1.73c-0.16,0.65-0.34,1.36-0.53,2.16
			c-0.19,0.79-0.4,1.67-0.64,2.63c-0.23,0.96-0.49,2.01-0.78,3.16c-0.04,0.27,0.03,0.5,0.21,0.7c0.18,0.2,0.41,0.3,0.68,0.3
			c0.01,0,0.04,0,0.07,0c0.03,0,0.09,0,0.17,0s0.18,0,0.32,0c0.13,0,0.31,0,0.52,0c0.21,0,0.47,0,0.79,0s0.68,0,1.11,0
			c0.43,0,0.91,0,1.47,0c0.55,0,1.18,0,1.87,0c0.69,0,1.47,0,2.34,0C377.59,50.87,378.54,50.87,379.59,50.87z"/>
		<path class="st0" d="M401.91,48.17h-4.49c0.01-0.01,0.02-0.03,0.02-0.04c0-0.01,0-0.02,0-0.03c0-0.01,0-0.01,0-0.02s0,0,0,0.01
			c0,0.01,0,0.04-0.01,0.07c-0.01,0.03-0.02,0.08-0.03,0.14c-0.01,0.06-0.03,0.13-0.05,0.22c-0.02,0.09-0.05,0.2-0.09,0.33
			c-0.04,0.13-0.07,0.28-0.11,0.45c-0.04,0.17-0.08,0.37-0.13,0.58c-0.05,0.22-0.11,0.47-0.17,0.76c-0.06,0.28-0.13,0.59-0.21,0.93
			c-0.08,0.33-0.17,0.7-0.27,1.11c-0.1,0.4-0.2,0.85-0.31,1.33c-0.11,0.48-0.22,1-0.35,1.56c-0.13,0.56-0.26,1.16-0.4,1.8h-7.08
			l5.62-23.76c1.11-3.13,3.11-4.7,6.02-4.7h13.85c1.97,0,3.57,0.74,4.8,2.21c1.23,1.48,1.64,3.18,1.24,5.11
			c-0.47,2.11-1.01,4.53-1.62,7.25c-0.34,1.38-1.07,2.5-2.18,3.38c-1.11,0.88-2.4,1.32-3.86,1.32h-2.6l5.57,9.23h-7.57L401.91,48.17
			z M411.69,40.96l1.08-4.55c0.04-0.26-0.02-0.49-0.19-0.69c-0.17-0.21-0.38-0.31-0.64-0.31h-10.93c-0.16,0-0.32,0.07-0.49,0.2
			c-0.17,0.13-0.28,0.3-0.34,0.5l-1.19,5.45h11.85C411.27,41.55,411.55,41.35,411.69,40.96z"/>
		<path class="st0" d="M429.69,35.43c-0.2,0-0.37,0.06-0.51,0.18c-0.14,0.12-0.24,0.26-0.3,0.41c0,0.01-0.01,0.04-0.02,0.06
			c-0.01,0.03-0.03,0.08-0.04,0.15c-0.01,0.07-0.04,0.17-0.06,0.31c-0.03,0.13-0.07,0.3-0.12,0.5c-0.05,0.2-0.11,0.45-0.18,0.74
			c-0.07,0.3-0.16,0.65-0.26,1.04c-0.04,0.27,0.01,0.5,0.17,0.7c0.16,0.2,0.36,0.3,0.62,0.3c0.01,0,0.03,0,0.06,0
			c0.03,0,0.07,0,0.14,0c0.06,0,0.16,0,0.29,0c0.13,0,0.29,0,0.48,0s0.43,0,0.7,0c0.28,0,0.61,0,0.99,0c0.38,0,0.82,0,1.32,0
			c0.5,0,1.06,0,1.69,0s1.34,0,2.12,0c0.78,0,1.64,0,2.57,0c1.91,0,3.44,0.74,4.58,2.22c1.14,1.48,1.49,3.19,1.05,5.12
			c0,0.01,0,0.03-0.01,0.06c-0.01,0.03-0.02,0.07-0.03,0.14c-0.01,0.06-0.04,0.16-0.06,0.28c-0.03,0.12-0.07,0.27-0.12,0.46
			c-0.05,0.18-0.11,0.41-0.17,0.69c-0.06,0.28-0.14,0.6-0.23,0.97c-0.09,0.37-0.2,0.79-0.32,1.28c-0.12,0.48-0.25,1.03-0.39,1.64
			c-0.37,1.39-1.11,2.52-2.21,3.4c-1.11,0.88-2.39,1.32-3.85,1.32c-0.01,0-0.04,0-0.07,0s-0.1,0-0.18,0c-0.09,0-0.2,0-0.35,0
			c-0.15,0-0.34,0-0.57,0s-0.52,0-0.86,0c-0.34,0-0.74,0-1.21,0s-1,0-1.61,0c-0.6,0-1.29,0-2.05,0c-0.77,0-1.62,0-2.56,0
			c-0.94,0-1.99,0-3.14,0c-1.15,0-2.4,0-3.77,0c-1.36,0-2.84,0-4.45,0c0-0.01,0-0.04,0.01-0.07c0.01-0.03,0.02-0.09,0.04-0.17
			c0.02-0.08,0.05-0.19,0.08-0.33s0.08-0.33,0.14-0.55c0.06-0.23,0.12-0.5,0.19-0.83c0.07-0.33,0.16-0.71,0.27-1.16
			c0.11-0.45,0.23-0.96,0.37-1.54c0.14-0.58,0.3-1.23,0.47-1.96c0.01,0,0.04,0,0.07,0c0.03,0,0.09,0,0.16,0c0.07,0,0.17,0,0.31,0
			c0.13,0,0.3,0,0.51,0c0.21,0,0.46,0,0.76,0c0.3,0,0.65,0,1.05,0s0.87,0,1.4,0c0.53,0,1.13,0,1.81,0s1.43,0,2.27,0
			c0.84,0,1.76,0,2.77,0c1.01,0,2.11,0,3.31,0c1.2,0,2.5,0,3.9,0c0.4,0,0.67-0.21,0.83-0.62c0-0.01,0-0.03,0.01-0.06
			c0.01-0.03,0.02-0.08,0.03-0.15c0.01-0.07,0.04-0.17,0.07-0.31c0.03-0.13,0.08-0.3,0.13-0.5c0.05-0.2,0.11-0.45,0.18-0.74
			c0.07-0.3,0.15-0.65,0.23-1.04c0.1-0.25,0.07-0.49-0.07-0.69c-0.15-0.21-0.35-0.31-0.61-0.31c0.01,0,0.02,0,0.01,0s-0.03,0-0.06,0
			c-0.04,0-0.09,0-0.15,0c-0.06,0-0.16,0-0.29,0c-0.13,0-0.29,0-0.49,0s-0.44,0-0.71,0s-0.61,0-0.99,0c-0.38,0-0.83,0-1.33,0
			c-0.5,0-1.07,0-1.71,0s-1.35,0-2.14,0c-0.79,0-1.65,0-2.58,0c-1.91,0-3.45-0.73-4.59-2.18c-1.15-1.45-1.5-3.17-1.06-5.14
			c0-0.01,0-0.04,0.01-0.06c0.01-0.03,0.02-0.08,0.04-0.15c0.02-0.07,0.05-0.17,0.07-0.29c0.03-0.12,0.06-0.27,0.11-0.46
			c0.04-0.18,0.1-0.41,0.17-0.68c0.07-0.27,0.15-0.59,0.23-0.97c0.09-0.38,0.19-0.8,0.31-1.29c0.12-0.48,0.26-1.03,0.41-1.64
			c1.21-3.08,3.22-4.62,6.04-4.62c0.01,0,0.04,0,0.07,0c0.03,0,0.1,0,0.18,0s0.21,0,0.36,0c0.16,0,0.35,0,0.58,0s0.52,0,0.86,0
			c0.34,0,0.74,0,1.21,0c0.47,0,1,0,1.61,0c0.6,0,1.29,0,2.06,0c0.77,0,1.63,0,2.58,0c0.95,0,2,0,3.15,0c1.15,0,2.41,0,3.79,0
			c1.38,0,2.86,0,4.47,0c0,0.01,0,0.04-0.01,0.07c-0.01,0.04-0.02,0.09-0.04,0.17c-0.02,0.08-0.05,0.19-0.09,0.33
			c-0.04,0.14-0.09,0.32-0.15,0.54c-0.06,0.22-0.13,0.49-0.21,0.81c-0.08,0.32-0.17,0.7-0.29,1.14c-0.11,0.44-0.24,0.95-0.39,1.52
			c-0.15,0.57-0.32,1.22-0.5,1.95c-0.01,0-0.04,0-0.06,0c-0.03,0-0.08,0-0.16,0c-0.08,0-0.18,0-0.31,0c-0.13,0-0.3,0-0.51,0
			c-0.21,0-0.47,0-0.77,0s-0.65,0-1.05,0c-0.4,0-0.87,0-1.4,0c-0.53,0-1.13,0-1.81,0c-0.67,0-1.43,0-2.25,0s-1.75,0-2.76,0
			c-1.01,0-2.11,0-3.32,0C432.4,35.43,431.09,35.43,429.69,35.43z"/>
		<g>
			<path d="M466.21,35.44h7.05l-5.08,21.35c-0.03,0.14-0.07,0.29-0.13,0.44h-7.15c0.1-0.14,0.18-0.29,0.23-0.44L466.21,35.44z
				 M467.69,28.88h7.05l-1.06,4.68h-7.05L467.69,28.88z"/>
			<path d="M476.29,33.58c1.24-3.13,3.41-4.7,6.5-4.7c0.01,0,0.03,0,0.06,0c0.03,0,0.08,0,0.16,0s0.18,0,0.32,0
				c0.13,0,0.31,0,0.52,0s0.47,0,0.77,0s0.66,0,1.08,0c0.42,0,0.9,0,1.44,0c0.54,0,1.16,0,1.84,0c0.68,0,1.45,0,2.3,0
				c0.85,0,1.78,0,2.8,0c1.02,0,2.15,0,3.37,0c2.09,0,3.78,0.73,5.09,2.2c1.3,1.47,1.75,3.16,1.34,5.08c0,0.01-0.01,0.04-0.02,0.08
				c-0.01,0.04-0.03,0.1-0.05,0.18c-0.02,0.08-0.05,0.19-0.08,0.35c-0.04,0.16-0.08,0.35-0.14,0.58c-0.06,0.23-0.13,0.52-0.21,0.86
				c-0.08,0.34-0.18,0.74-0.3,1.21c-0.11,0.47-0.24,1-0.39,1.61c-0.15,0.61-0.31,1.29-0.5,2.05c-0.18,0.76-0.39,1.62-0.62,2.56
				c-0.23,0.95-0.49,1.99-0.76,3.14c-0.28,1.15-0.58,2.4-0.92,3.76c-1.11,3.13-3.27,4.7-6.48,4.7c-0.01,0-0.04,0-0.07,0
				c-0.04,0-0.09,0-0.16,0c-0.07,0-0.17,0-0.31,0c-0.13,0-0.31,0-0.52,0c-0.21,0-0.47,0-0.76,0s-0.65,0-1.07,0s-0.89,0-1.43,0
				c-0.54,0-1.14,0-1.82,0c-0.68,0-1.44,0-2.29,0c-0.85,0-1.78,0-2.79,0s-2.13,0-3.34,0c-2.14,0-3.87-0.73-5.16-2.2
				c-1.3-1.47-1.76-3.16-1.38-5.08c0-0.01,0-0.04,0.01-0.09c0.01-0.04,0.02-0.1,0.04-0.18c0.02-0.08,0.05-0.19,0.08-0.35
				c0.03-0.16,0.08-0.35,0.15-0.58c0.06-0.23,0.13-0.52,0.21-0.86c0.08-0.34,0.17-0.74,0.29-1.21c0.11-0.47,0.24-1,0.39-1.61
				c0.15-0.61,0.32-1.29,0.51-2.05c0.19-0.76,0.4-1.61,0.62-2.56c0.23-0.95,0.48-1.99,0.76-3.14
				C475.66,36.19,475.96,34.93,476.29,33.58z M492.15,50.74c0.44,0,0.73-0.23,0.89-0.7c0-0.01,0-0.03,0.01-0.06
				c0.01-0.03,0.02-0.08,0.03-0.15c0.01-0.07,0.04-0.17,0.07-0.3c0.03-0.13,0.07-0.29,0.12-0.48c0.04-0.19,0.1-0.43,0.17-0.72
				c0.07-0.29,0.15-0.62,0.25-1.01c0.1-0.38,0.21-0.83,0.33-1.33c0.12-0.51,0.26-1.08,0.41-1.72c0.16-0.64,0.33-1.36,0.53-2.15
				c0.2-0.79,0.41-1.66,0.65-2.61c0.23-0.95,0.49-2,0.77-3.14c0.04-0.27-0.01-0.5-0.17-0.7c-0.16-0.2-0.4-0.3-0.72-0.3
				c-0.01,0-0.04,0-0.07,0c-0.04,0-0.09,0-0.17,0s-0.18,0-0.32,0c-0.13,0-0.31,0-0.53,0c-0.22,0-0.48,0-0.78,0c-0.3,0-0.67,0-1.09,0
				c-0.42,0-0.91,0-1.46,0c-0.55,0-1.17,0-1.87,0c-0.7,0-1.48,0-2.34,0c-0.86,0-1.81,0-2.84,0c-0.45,0-0.75,0.23-0.89,0.7
				c0,0.01,0,0.04-0.01,0.06c-0.01,0.03-0.02,0.08-0.04,0.15c-0.02,0.07-0.05,0.17-0.07,0.3c-0.03,0.13-0.07,0.29-0.12,0.48
				c-0.05,0.19-0.11,0.43-0.18,0.72c-0.07,0.29-0.15,0.62-0.24,1.01c-0.09,0.38-0.2,0.83-0.32,1.33c-0.12,0.51-0.26,1.08-0.42,1.72
				c-0.16,0.64-0.34,1.36-0.53,2.15s-0.4,1.66-0.63,2.61c-0.23,0.95-0.49,2-0.77,3.14c-0.04,0.27,0.03,0.5,0.21,0.7
				c0.18,0.2,0.41,0.3,0.68,0.3c0.01,0,0.04,0,0.07,0c0.03,0,0.09,0,0.17,0c0.08,0,0.18,0,0.32,0c0.13,0,0.31,0,0.52,0
				c0.21,0,0.47,0,0.78,0s0.68,0,1.1,0c0.42,0,0.91,0,1.46,0c0.55,0,1.17,0,1.86,0c0.69,0,1.47,0,2.33,0
				C490.16,50.74,491.11,50.74,492.15,50.74z"/>
		</g>
		<polygon points="448.35,51.55 457.17,51.55 455.85,57.4 447.03,57.4 		"/>
	</g>
	<g>
		<polygon points="16.29,58.3 54.38,79.84 54.38,68.94 26,52.6 26,48.24 54.38,64.33 54.38,53.3 16.29,31.16 		"/>
		<polygon class="st0" points="57.89,53.31 57.89,79.85 95.98,58.31 95.98,31.16 		"/>
		<polygon class="st0" points="55.9,6.25 18.1,28.44 55.9,50.68 68.06,43.62 68.06,36.98 55.9,29.34 55.9,39.38 37.52,28.47 
			55.9,18.29 72.99,28.84 69.83,30.85 79.97,36.56 94.18,28.47 		"/>
		<linearGradient id="SVGID_1_" gradientUnits="userSpaceOnUse" x1="18.0952" y1="17.3612" x2="55.9023" y2="17.3612">
			<stop  offset="0" style="stop-color:#FFFFFF;stop-opacity:0.08"/>
			<stop  offset="1" style="stop-color:#006838"/>
		</linearGradient>
		<polygon class="st1" points="55.9,18.29 55.9,6.25 18.1,28.44 37.52,28.47 		"/>
		
			<linearGradient id="SVGID_00000181768310351020854590000012023325328221116035_" gradientUnits="userSpaceOnUse" x1="57.8936" y1="55.5053" x2="95.9838" y2="55.5053">
			<stop  offset="0" style="stop-color:#FFFFFF;stop-opacity:0.08"/>
			<stop  offset="1" style="stop-color:#006838"/>
		</linearGradient>
		<polygon style="fill:url(#SVGID_00000181768310351020854590000012023325328221116035_);" points="95.98,31.16 57.89,79.85 
			95.98,58.31 		"/>
		
			<linearGradient id="SVGID_00000021091510567181442570000006049631159366720402_" gradientUnits="userSpaceOnUse" x1="16.2915" y1="47.7478" x2="54.3817" y2="47.7478">
			<stop  offset="0" style="stop-color:#FFFFFF;stop-opacity:0.08"/>
			<stop  offset="0.9659" style="stop-color:#939598;stop-opacity:0.97"/>
			<stop  offset="1" style="stop-color:#006838"/>
		</linearGradient>
		<polygon style="fill:url(#SVGID_00000021091510567181442570000006049631159366720402_);" points="54.38,64.33 16.29,31.16 
			16.29,58.3 26,52.6 26,48.24 		"/>
	</g>
</g>
</svg>
