<?xml version="1.0" encoding="utf-8"?>
<!-- Generator: Adobe Illustrator 27.1.1, SVG Export Plug-In . SVG Version: 6.00 Build 0)  -->
<svg version="1.1" id="Layer_1" xmlns="http://www.w3.org/2000/svg" xmlns:xlink="http://www.w3.org/1999/xlink" x="0px" y="0px"
	 viewBox="0 0 520.32 86.1" style="enable-background:new 0 0 520.32 86.1;" xml:space="preserve">
<style type="text/css">
	.st0{fill:#00E59B;}
	.st1{fill:url(#SVGID_1_);}
	.st2{fill:url(#SVGID_00000048480426758050571620000012222363674706310582_);}
	.st3{fill:url(#SVGID_00000017514530465341147760000006068547529569525379_);}
	.st4{fill:#FFFFFF;}
	.st5{fill:url(#SVGID_00000175288893319122530640000010652488575281272225_);}
	.st6{fill:url(#SVGID_00000107561493763869498770000016933178265258471081_);}
	.st7{fill:url(#SVGID_00000085215688137073116630000005290521785289354135_);}
	.st8{fill:url(#SVGID_00000113316876476673046870000016666917462609082303_);}
	.st9{fill:url(#SVGID_00000167396119532488890240000005070650590503039619_);}
	.st10{fill:url(#SVGID_00000013154638528464446360000017327404287629579400_);}
	.st11{fill:url(#SVGID_00000173883017164469995740000008100515540124931006_);}
	.st12{fill:url(#SVGID_00000106860436840382270100000007966961164739285647_);}
	.st13{fill:url(#SVGID_00000032623359291976811000000012122051972306790075_);}
</style>
<rect width="521.02" height="86.1"/>
<g>
	<g>
		<path class="st4" d="M101.07,33.28c1.15-3.26,3.24-4.89,6.28-4.89h22.66l-1.61,6.83v-0.07h-7.3h-12.52c-0.16,0-0.33,0.07-0.51,0.2
			c-0.18,0.13-0.3,0.31-0.37,0.53l-3.33,14.24c-0.04,0.28,0.02,0.52,0.2,0.73c0.18,0.21,0.4,0.31,0.68,0.31h11.42
			c0.16,0,0.33-0.07,0.5-0.2c0.17-0.13,0.26-0.31,0.28-0.53l0.93-3.9h-11.35l1.5-6.75h12.54h6.26c-0.65,2.78-1.48,6.33-2.51,10.67
			c-0.19,0.84-0.4,1.7-0.62,2.58c-1.15,3.26-3.25,4.89-6.3,4.89h-14.48c-2.06,0-3.73-0.76-5.01-2.29c-1.29-1.53-1.72-3.29-1.31-5.29
			L101.07,33.28z"/>
		<path class="st4" d="M131.98,33.28c1.16-3.26,3.2-4.89,6.11-4.89h21.53l-7.16,29.54h-7.01l1.98-8.16L151,35.15h-11.9
			c-0.16,0-0.33,0.07-0.5,0.2c-0.17,0.13-0.28,0.31-0.34,0.53l-1.74,7.14h10.51l-1.65,6.77h-10.49l-1.98,8.13h-6.96L131.98,33.28z"
			/>
		<path class="st4" d="M183.67,57.92c-0.45,0-0.86,0-1.23,0c-0.37,0-0.72,0-1.04,0c-0.32,0-0.6,0-0.86,0c-0.26,0-0.49,0-0.69,0
			c-0.21,0-0.39,0-0.55,0c-0.16,0-0.31,0-0.43,0c-0.12,0-0.23,0-0.31,0c-0.08,0-0.15,0-0.21,0c-0.06,0-0.11,0-0.14,0
			c-0.04,0-0.06,0-0.08,0c-0.01,0-0.03,0-0.04,0c0.69-2.72,1.27-5.03,1.75-6.93c0.48-1.9,0.86-3.46,1.16-4.68
			c0.29-1.22,0.52-2.17,0.67-2.85c0.15-0.68,0.29-1.28,0.41-1.8c-3.47,5.19-6.72,9.89-9.76,14.11c-1.04,0-1.98-0.33-2.8-0.98
			c-0.82-0.65-1.36-1.51-1.61-2.57c-0.16-0.78-0.31-1.51-0.44-2.19c-0.13-0.68-0.26-1.32-0.37-1.91c-0.12-0.59-0.22-1.13-0.32-1.62
			c-0.1-0.49-0.18-0.94-0.26-1.35c-0.08-0.41-0.15-0.78-0.22-1.11c-0.07-0.33-0.12-0.63-0.18-0.89c-0.05-0.26-0.1-0.5-0.13-0.69
			c-0.04-0.2-0.07-0.37-0.1-0.52c-0.03-0.15-0.06-0.28-0.08-0.39c-0.02-0.11-0.04-0.2-0.06-0.26c-0.01-0.07-0.03-0.12-0.03-0.15
			c-0.01-0.04-0.01-0.06-0.01-0.08c-0.69,2.84-1.27,5.24-1.75,7.22c-0.48,1.98-0.86,3.6-1.16,4.87c-0.29,1.27-0.52,2.26-0.67,2.95
			c-0.15,0.7-0.29,1.31-0.41,1.84c-0.51,0-1,0-1.44,0c-0.45,0-0.86,0-1.23,0c-0.37,0-0.72,0-1.04,0c-0.32,0-0.61,0-0.87,0
			c-0.26,0-0.5,0-0.71,0c-0.21,0-0.39,0-0.55,0s-0.31,0-0.43,0c-0.12,0-0.23,0-0.32,0c-0.09,0-0.16,0-0.22,0c-0.06,0-0.11,0-0.14,0
			c-0.04,0-0.06,0-0.08,0c-0.01,0-0.03,0-0.04,0c0.44-1.87,0.85-3.61,1.23-5.22c0.38-1.62,0.73-3.11,1.05-4.49
			c0.32-1.37,0.61-2.64,0.88-3.79c0.27-1.15,0.52-2.21,0.75-3.16c0.23-0.96,0.43-1.82,0.62-2.59c0.18-0.77,0.35-1.46,0.49-2.07
			c0.14-0.61,0.26-1.15,0.37-1.61c0.11-0.46,0.21-0.87,0.29-1.21c0.08-0.35,0.15-0.64,0.21-0.87c0.06-0.23,0.1-0.43,0.13-0.58
			c0.03-0.15,0.05-0.27,0.08-0.35c0.02-0.08,0.04-0.14,0.04-0.18c0.01-0.04,0.01-0.06,0.02-0.07c0.01-0.01,0-0.01-0.01-0.01
			c0.81-2.22,2.26-3.33,4.34-3.33c0.46,0,0.86,0,1.22,0c0.36,0,0.68,0,0.95,0c0.27,0,0.51,0,0.72,0c0.21,0,0.38,0,0.53,0
			c0.15,0,0.27,0,0.36,0c0.1,0,0.17,0,0.22,0c0.05,0,0.09,0,0.12,0c0.03,0,0.05,0,0.07,0c0.19,0.93,0.37,1.8,0.54,2.62
			c0.17,0.82,0.33,1.59,0.47,2.31c0.15,0.72,0.29,1.4,0.42,2.04c0.13,0.64,0.25,1.23,0.36,1.79c0.11,0.55,0.21,1.06,0.31,1.53
			c0.1,0.47,0.18,0.91,0.26,1.31c0.08,0.4,0.15,0.77,0.22,1.1c0.07,0.33,0.12,0.63,0.18,0.9c0.05,0.27,0.1,0.52,0.14,0.74
			c0.04,0.22,0.08,0.42,0.11,0.58c0.03,0.17,0.06,0.32,0.09,0.45c0.03,0.13,0.05,0.24,0.07,0.33c0.01,0.09,0.03,0.17,0.03,0.23
			c0.01,0.07,0.01,0.12,0.02,0.15c0.01,0.04,0.01,0.06,0.02,0.08c0.01,0.01,0.01,0.03,0.01,0.04h-0.02
			c0.97-1.38,1.86-2.65,2.67-3.81c0.81-1.16,1.55-2.22,2.22-3.16c0.67-0.95,1.27-1.8,1.81-2.57c0.54-0.76,1.02-1.45,1.44-2.05
			c0.43-0.6,0.8-1.13,1.12-1.59c0.32-0.46,0.6-0.84,0.84-1.17s0.44-0.6,0.61-0.83c0.17-0.23,0.3-0.41,0.41-0.54
			c0.1-0.13,0.18-0.23,0.23-0.31c0.05-0.07,0.11-0.14,0.17-0.2c0.81,0,1.54,0,2.18,0c0.65,0,1.22,0,1.73,0c0.51,0,0.96,0,1.36,0
			c0.4,0,0.74,0,1.02,0c0.29,0,0.53,0,0.73,0s0.36,0,0.48,0c0.12,0,0.22,0,0.3,0c0.07,0,0.12,0,0.15,0c0.03,0,0.05,0,0.07,0
			c-0.47,1.97-0.9,3.81-1.3,5.52c-0.4,1.71-0.77,3.31-1.12,4.78c-0.35,1.48-0.68,2.85-0.97,4.11c-0.29,1.26-0.57,2.42-0.82,3.48
			s-0.48,2.02-0.68,2.89c-0.21,0.87-0.39,1.66-0.56,2.37c-0.17,0.71-0.32,1.35-0.45,1.91c-0.13,0.56-0.25,1.05-0.34,1.48
			c-0.1,0.43-0.18,0.8-0.25,1.11c-0.07,0.32-0.14,0.58-0.19,0.79c-0.05,0.21-0.1,0.39-0.13,0.53c-0.04,0.14-0.06,0.25-0.08,0.33
			c-0.01,0.08-0.03,0.14-0.03,0.17s-0.02,0.05-0.03,0.07C184.6,57.92,184.12,57.92,183.67,57.92z"/>
		<path class="st4" d="M193.36,33.28c1.15-3.26,3.24-4.89,6.28-4.89h20.37l-1.56,6.77h-11.86h-5.71c-0.16,0-0.33,0.07-0.51,0.2
			c-0.18,0.13-0.3,0.31-0.37,0.53l-0.9,3.9h11.97l-1.5,6.75h-12.03l-0.84,3.59c-0.04,0.28,0.02,0.52,0.2,0.73
			c0.18,0.21,0.4,0.31,0.66,0.31h9.1v0.02h8.07c-0.47,2.06-0.99,4.31-1.56,6.74h-17.41c-2.07,0-3.75-0.76-5.04-2.29
			c-1.29-1.53-1.72-3.29-1.31-5.29L193.36,33.28z"/>
		<path class="st0" d="M222.5,33.28c1.18-3.26,3.28-4.89,6.33-4.89h20.37l-1.63,6.77H235.7H230c-0.16,0-0.33,0.07-0.51,0.2
			c-0.18,0.13-0.3,0.31-0.37,0.53l-3.44,14.24c-0.04,0.28,0.02,0.52,0.2,0.73c0.18,0.21,0.4,0.31,0.68,0.31h9.08v0.02h8.09
			c-0.5,2.06-1.04,4.31-1.63,6.74h-17.44c-2.06,0-3.72-0.76-5-2.29c-1.28-1.53-1.7-3.29-1.28-5.29L222.5,33.28z"/>
		<path class="st0" d="M259.44,48.35h-4.65c0.01-0.01,0.02-0.03,0.02-0.04c0-0.01,0-0.03,0-0.03s0-0.01,0-0.02s0,0,0,0.01
			s0,0.04-0.01,0.08c-0.01,0.04-0.02,0.08-0.03,0.14c-0.01,0.06-0.03,0.14-0.05,0.23c-0.02,0.1-0.05,0.21-0.09,0.34
			c-0.04,0.13-0.07,0.29-0.11,0.46c-0.04,0.18-0.08,0.38-0.13,0.61c-0.05,0.23-0.11,0.49-0.18,0.78c-0.07,0.29-0.14,0.61-0.22,0.96
			c-0.08,0.35-0.17,0.73-0.28,1.15c-0.1,0.42-0.21,0.88-0.32,1.38c-0.11,0.5-0.23,1.04-0.36,1.62c-0.13,0.58-0.27,1.2-0.42,1.86
			h-7.34l5.82-24.62c1.15-3.25,3.23-4.87,6.24-4.87h14.35c2.04,0,3.7,0.76,4.97,2.29c1.27,1.53,1.7,3.29,1.29,5.29
			c-0.49,2.19-1.04,4.7-1.67,7.52c-0.35,1.43-1.11,2.59-2.26,3.5c-1.15,0.91-2.49,1.37-4,1.37h-2.69l5.77,9.57h-7.85L259.44,48.35z
			 M269.58,40.88l1.12-4.72c0.04-0.26-0.02-0.5-0.2-0.72c-0.18-0.21-0.4-0.32-0.66-0.32h-11.33c-0.16,0-0.33,0.07-0.51,0.21
			c-0.18,0.14-0.29,0.31-0.35,0.52l-1.23,5.64h12.28C269.14,41.5,269.44,41.29,269.58,40.88z"/>
		<path class="st0" d="M280.78,33.28c1.15-3.26,3.24-4.89,6.28-4.89h20.37l-1.56,6.77H294h-5.71c-0.16,0-0.33,0.07-0.51,0.2
			c-0.18,0.13-0.3,0.31-0.37,0.53l-0.9,3.9h11.97l-1.5,6.75h-12.03l-0.84,3.59c-0.04,0.28,0.02,0.52,0.2,0.73
			c0.18,0.21,0.4,0.31,0.66,0.31h9.1v0.02h8.07c-0.47,2.06-0.99,4.31-1.56,6.74h-17.41c-2.07,0-3.75-0.76-5.04-2.29
			c-1.29-1.53-1.72-3.29-1.31-5.29L280.78,33.28z"/>
		<path class="st0" d="M309.57,33.28c1.16-3.26,3.2-4.89,6.11-4.89h21.53l-7.16,29.54h-7.01l1.98-8.16l3.57-14.61h-11.9
			c-0.16,0-0.33,0.07-0.5,0.2c-0.17,0.13-0.28,0.31-0.34,0.53l-1.74,7.14h10.51l-1.65,6.77h-10.49l-1.98,8.13h-6.96L309.57,33.28z"
			/>
		<path class="st0" d="M347.74,35.11h-9.79l1.65-6.72h26.21l-1.65,6.72h-9.5l-4.83,22.81h-7.01L347.74,35.11z"/>
		<path class="st0" d="M367.38,33.28c1.29-3.26,3.55-4.89,6.77-4.89c0.01,0,0.04,0,0.07,0c0.03,0,0.08,0,0.16,0
			c0.08,0,0.19,0,0.33,0c0.14,0,0.32,0,0.54,0c0.22,0,0.49,0,0.8,0c0.32,0,0.69,0,1.12,0s0.93,0,1.5,0c0.57,0,1.2,0,1.92,0
			s1.51,0,2.39,0c0.88,0,1.86,0,2.92,0s2.24,0,3.52,0c2.17,0,3.94,0.76,5.3,2.29c1.36,1.53,1.83,3.29,1.4,5.29
			c0,0.01-0.01,0.04-0.02,0.09c-0.01,0.04-0.03,0.11-0.06,0.19c-0.02,0.08-0.05,0.2-0.09,0.36c-0.04,0.16-0.08,0.36-0.14,0.61
			c-0.06,0.24-0.13,0.54-0.22,0.89c-0.09,0.35-0.19,0.77-0.31,1.26c-0.12,0.49-0.25,1.04-0.41,1.67c-0.15,0.63-0.33,1.34-0.52,2.14
			c-0.19,0.79-0.41,1.68-0.65,2.67c-0.24,0.98-0.51,2.08-0.79,3.27c-0.29,1.2-0.61,2.5-0.96,3.91c-1.16,3.26-3.41,4.89-6.74,4.89
			c-0.01,0-0.04,0-0.08,0c-0.04,0-0.09,0-0.17,0c-0.07,0-0.18,0-0.32,0c-0.14,0-0.32,0-0.54,0c-0.22,0-0.49,0-0.79,0
			c-0.31,0-0.68,0-1.11,0s-0.93,0-1.49,0c-0.56,0-1.19,0-1.9,0c-0.71,0-1.5,0-2.38,0s-1.85,0-2.91,0c-1.06,0-2.22,0-3.48,0
			c-2.23,0-4.03-0.76-5.38-2.29c-1.35-1.53-1.83-3.29-1.43-5.29c0-0.01,0-0.04,0.01-0.09c0.01-0.04,0.02-0.11,0.04-0.19
			c0.02-0.08,0.05-0.2,0.09-0.36c0.04-0.16,0.09-0.36,0.15-0.61c0.07-0.24,0.14-0.54,0.22-0.89c0.08-0.35,0.18-0.77,0.3-1.26
			c0.12-0.49,0.25-1.04,0.41-1.68c0.15-0.63,0.33-1.34,0.53-2.14s0.41-1.68,0.65-2.67c0.23-0.98,0.5-2.08,0.79-3.27
			C366.73,35.99,367.04,34.69,367.38,33.28z M383.91,51.15c0.46,0,0.76-0.24,0.93-0.73c0-0.01,0-0.04,0.01-0.07
			c0.01-0.03,0.02-0.08,0.03-0.15c0.01-0.07,0.04-0.18,0.08-0.31s0.08-0.3,0.12-0.5c0.04-0.2,0.1-0.45,0.18-0.75
			c0.07-0.3,0.16-0.65,0.26-1.05c0.1-0.4,0.22-0.86,0.34-1.39c0.12-0.53,0.27-1.13,0.43-1.8c0.16-0.67,0.35-1.41,0.55-2.24
			c0.21-0.82,0.43-1.73,0.67-2.72c0.24-0.99,0.51-2.08,0.8-3.27c0.04-0.28-0.01-0.52-0.18-0.73c-0.16-0.21-0.41-0.31-0.75-0.31
			c-0.01,0-0.04,0-0.08,0s-0.1,0-0.18,0c-0.08,0-0.19,0-0.33,0c-0.14,0-0.32,0-0.55,0c-0.23,0-0.5,0-0.82,0c-0.32,0-0.69,0-1.14,0
			c-0.44,0-0.95,0-1.52,0c-0.57,0-1.22,0-1.95,0c-0.73,0-1.54,0-2.44,0s-1.88,0-2.95,0c-0.47,0-0.78,0.24-0.93,0.73
			c0,0.01,0,0.04-0.01,0.07c-0.01,0.03-0.02,0.08-0.04,0.15c-0.02,0.07-0.05,0.18-0.08,0.31c-0.03,0.13-0.07,0.3-0.12,0.5
			c-0.05,0.2-0.11,0.45-0.19,0.75c-0.07,0.3-0.16,0.65-0.25,1.05c-0.1,0.4-0.21,0.86-0.33,1.39c-0.12,0.53-0.27,1.13-0.44,1.8
			c-0.17,0.67-0.35,1.41-0.55,2.24c-0.2,0.82-0.42,1.73-0.66,2.72c-0.24,0.99-0.51,2.08-0.8,3.27c-0.04,0.28,0.03,0.52,0.22,0.73
			c0.19,0.21,0.43,0.31,0.71,0.31c0.01,0,0.04,0,0.08,0c0.04,0,0.1,0,0.18,0s0.19,0,0.33,0c0.14,0,0.32,0,0.54,0
			c0.22,0,0.49,0,0.82,0c0.32,0,0.71,0,1.15,0s0.95,0,1.52,0c0.57,0,1.22,0,1.94,0c0.72,0,1.53,0,2.42,0
			C381.83,51.15,382.83,51.15,383.91,51.15z"/>
		<path class="st0" d="M407.03,48.35h-4.65c0.01-0.01,0.02-0.03,0.02-0.04c0-0.01,0-0.03,0-0.03s0-0.01,0-0.02s0,0,0,0.01
			s0,0.04-0.01,0.08c-0.01,0.04-0.02,0.08-0.03,0.14c-0.01,0.06-0.03,0.14-0.05,0.23c-0.02,0.1-0.05,0.21-0.09,0.34
			c-0.04,0.13-0.07,0.29-0.11,0.46c-0.04,0.18-0.08,0.38-0.13,0.61c-0.05,0.23-0.11,0.49-0.18,0.78c-0.07,0.29-0.14,0.61-0.22,0.96
			c-0.08,0.35-0.17,0.73-0.28,1.15c-0.1,0.42-0.21,0.88-0.32,1.38c-0.11,0.5-0.23,1.04-0.36,1.62c-0.13,0.58-0.27,1.2-0.42,1.86
			h-7.34l5.82-24.62c1.15-3.25,3.23-4.87,6.24-4.87h14.35c2.04,0,3.7,0.76,4.97,2.29c1.27,1.53,1.7,3.29,1.29,5.29
			c-0.49,2.19-1.04,4.7-1.67,7.52c-0.35,1.43-1.11,2.59-2.26,3.5c-1.15,0.91-2.49,1.37-4,1.37h-2.69l5.77,9.57h-7.85L407.03,48.35z
			 M417.17,40.88l1.12-4.72c0.04-0.26-0.02-0.5-0.2-0.72c-0.18-0.21-0.4-0.32-0.66-0.32h-11.33c-0.16,0-0.33,0.07-0.51,0.21
			c-0.18,0.14-0.29,0.31-0.35,0.52l-1.23,5.64h12.28C416.73,41.5,417.03,41.29,417.17,40.88z"/>
		<path class="st0" d="M435.82,35.15c-0.21,0-0.38,0.06-0.53,0.19c-0.15,0.12-0.25,0.27-0.31,0.43c0,0.01-0.01,0.04-0.02,0.07
			c-0.01,0.03-0.03,0.08-0.04,0.15c-0.01,0.07-0.04,0.18-0.07,0.32c-0.03,0.14-0.07,0.31-0.12,0.52c-0.05,0.21-0.11,0.46-0.19,0.77
			c-0.07,0.31-0.16,0.67-0.26,1.08c-0.04,0.28,0.01,0.52,0.18,0.73c0.16,0.21,0.37,0.31,0.64,0.31c0.01,0,0.04,0,0.07,0
			c0.03,0,0.08,0,0.14,0c0.07,0,0.17,0,0.3,0c0.13,0,0.3,0,0.5,0s0.44,0,0.73,0c0.29,0,0.63,0,1.02,0c0.4,0,0.85,0,1.37,0
			c0.51,0,1.1,0,1.75,0c0.65,0,1.39,0,2.19,0c0.81,0,1.7,0,2.67,0c1.98,0,3.57,0.77,4.75,2.3c1.18,1.54,1.55,3.3,1.09,5.3
			c0,0.01,0,0.04-0.01,0.07c-0.01,0.03-0.02,0.08-0.03,0.14c-0.01,0.07-0.04,0.16-0.07,0.29c-0.03,0.12-0.07,0.28-0.12,0.47
			c-0.05,0.19-0.11,0.43-0.18,0.72c-0.07,0.29-0.15,0.62-0.24,1c-0.1,0.38-0.21,0.82-0.33,1.32c-0.12,0.5-0.26,1.07-0.41,1.7
			c-0.38,1.44-1.15,2.62-2.29,3.53c-1.15,0.91-2.48,1.37-3.99,1.37c-0.01,0-0.04,0-0.08,0s-0.1,0-0.19,0c-0.09,0-0.21,0-0.36,0
			c-0.15,0-0.35,0-0.6,0s-0.54,0-0.89,0c-0.35,0-0.77,0-1.26,0s-1.04,0-1.66,0c-0.62,0-1.33,0-2.13,0c-0.79,0-1.68,0-2.66,0
			c-0.98,0-2.06,0-3.25,0c-1.19,0-2.49,0-3.9,0c-1.41,0-2.95,0-4.61,0c0-0.01,0-0.04,0.01-0.08c0.01-0.04,0.02-0.1,0.04-0.18
			c0.02-0.08,0.05-0.19,0.09-0.34c0.04-0.15,0.08-0.34,0.14-0.57c0.06-0.24,0.12-0.52,0.2-0.86c0.07-0.34,0.16-0.74,0.28-1.2
			c0.11-0.46,0.24-1,0.39-1.6c0.15-0.6,0.31-1.28,0.49-2.03c0.01,0,0.04,0,0.08,0c0.04,0,0.09,0,0.16,0c0.07,0,0.18,0,0.32,0
			c0.14,0,0.32,0,0.53,0c0.21,0,0.47,0,0.78,0c0.31,0,0.67,0,1.09,0s0.9,0,1.45,0c0.55,0,1.18,0,1.87,0s1.48,0,2.35,0
			c0.87,0,1.82,0,2.87,0c1.04,0,2.19,0,3.43,0c1.24,0,2.59,0,4.04,0c0.41,0,0.7-0.21,0.86-0.64c0-0.01,0-0.04,0.01-0.07
			c0.01-0.03,0.02-0.08,0.03-0.15c0.01-0.07,0.04-0.18,0.08-0.32c0.04-0.14,0.08-0.31,0.13-0.52c0.05-0.21,0.11-0.46,0.19-0.77
			c0.07-0.31,0.15-0.67,0.24-1.08c0.1-0.26,0.08-0.5-0.08-0.72c-0.15-0.21-0.36-0.32-0.63-0.32c0.01,0,0.02,0,0.01,0
			c-0.01,0-0.03,0-0.07,0c-0.04,0-0.09,0-0.15,0c-0.07,0-0.17,0-0.3,0c-0.13,0-0.3,0-0.51,0c-0.21,0-0.45,0-0.74,0s-0.63,0-1.02,0
			c-0.4,0-0.86,0-1.38,0c-0.52,0-1.11,0-1.77,0c-0.66,0-1.4,0-2.21,0c-0.82,0-1.71,0-2.68,0c-1.98,0-3.57-0.75-4.76-2.26
			c-1.19-1.51-1.56-3.28-1.1-5.32c0-0.01,0-0.04,0.01-0.07c0.01-0.03,0.02-0.08,0.04-0.15c0.02-0.07,0.05-0.17,0.08-0.3
			c0.03-0.12,0.07-0.28,0.11-0.47c0.04-0.19,0.1-0.43,0.18-0.71c0.07-0.28,0.15-0.61,0.24-1c0.09-0.39,0.19-0.83,0.32-1.33
			c0.12-0.5,0.27-1.06,0.43-1.7c1.25-3.19,3.34-4.78,6.26-4.78c0.01,0,0.04,0,0.08,0c0.04,0,0.1,0,0.19,0s0.21,0,0.37,0
			c0.16,0,0.36,0,0.61,0c0.24,0,0.54,0,0.89,0c0.35,0,0.77,0,1.26,0c0.49,0,1.04,0,1.66,0c0.62,0,1.34,0,2.14,0c0.8,0,1.69,0,2.68,0
			c0.98,0,2.07,0,3.26,0c1.19,0,2.5,0,3.92,0c1.43,0,2.97,0,4.63,0c0,0.01,0,0.04-0.01,0.08c-0.01,0.04-0.02,0.1-0.04,0.18
			c-0.02,0.08-0.05,0.19-0.09,0.34c-0.04,0.15-0.09,0.33-0.15,0.56c-0.07,0.23-0.14,0.51-0.22,0.84c-0.08,0.33-0.18,0.72-0.3,1.18
			c-0.12,0.46-0.25,0.98-0.41,1.58c-0.15,0.6-0.33,1.27-0.52,2.02c-0.01,0-0.04,0-0.07,0c-0.03,0-0.08,0-0.17,0
			c-0.08,0-0.19,0-0.32,0c-0.13,0-0.31,0-0.53,0c-0.22,0-0.49,0-0.79,0c-0.31,0-0.67,0-1.09,0c-0.42,0-0.9,0-1.45,0s-1.18,0-1.87,0
			s-1.48,0-2.34,0s-1.81,0-2.85,0c-1.04,0-2.19,0-3.44,0C438.63,35.15,437.28,35.15,435.82,35.15z"/>
		<g>
			<path class="st4" d="M473.67,35.17h7.3l-5.26,22.12c-0.03,0.15-0.07,0.3-0.13,0.46h-7.41c0.1-0.15,0.18-0.3,0.24-0.46
				L473.67,35.17z M475.2,28.37h7.3l-1.1,4.85h-7.3L475.2,28.37z"/>
			<path class="st4" d="M484.1,33.24c1.29-3.24,3.53-4.87,6.73-4.87c0.01,0,0.04,0,0.07,0s0.08,0,0.16,0s0.19,0,0.33,0
				c0.14,0,0.32,0,0.54,0s0.49,0,0.8,0c0.31,0,0.69,0,1.12,0s0.93,0,1.49,0c0.56,0,1.2,0,1.91,0c0.71,0,1.5,0,2.38,0
				c0.88,0,1.85,0,2.91,0c1.06,0,2.23,0,3.5,0c2.16,0,3.92,0.76,5.27,2.28c1.35,1.52,1.82,3.27,1.39,5.26
				c0,0.01-0.01,0.04-0.02,0.09s-0.03,0.11-0.05,0.19c-0.02,0.08-0.05,0.2-0.09,0.36c-0.04,0.16-0.08,0.36-0.14,0.6
				c-0.06,0.24-0.13,0.54-0.22,0.89s-0.19,0.77-0.31,1.25s-0.25,1.04-0.41,1.67c-0.15,0.63-0.33,1.34-0.52,2.13
				c-0.19,0.79-0.41,1.67-0.65,2.65c-0.24,0.98-0.5,2.06-0.79,3.26c-0.29,1.19-0.6,2.49-0.95,3.89c-1.16,3.24-3.39,4.87-6.71,4.87
				c-0.01,0-0.04,0-0.08,0c-0.04,0-0.09,0-0.16,0c-0.07,0-0.18,0-0.32,0s-0.32,0-0.54,0s-0.48,0-0.79,0c-0.31,0-0.68,0-1.11,0
				c-0.43,0-0.92,0-1.48,0c-0.56,0-1.18,0-1.89,0c-0.7,0-1.49,0-2.37,0c-0.88,0-1.84,0-2.89,0c-1.05,0-2.21,0-3.46,0
				c-2.22,0-4.01-0.76-5.35-2.28c-1.34-1.52-1.82-3.27-1.43-5.26c0-0.01,0-0.04,0.01-0.09c0.01-0.04,0.02-0.11,0.04-0.19
				c0.02-0.08,0.05-0.2,0.09-0.36c0.04-0.16,0.09-0.36,0.15-0.6c0.07-0.24,0.14-0.54,0.22-0.89c0.08-0.35,0.18-0.77,0.3-1.25
				c0.12-0.48,0.25-1.04,0.41-1.67c0.15-0.63,0.33-1.34,0.53-2.13c0.2-0.79,0.41-1.67,0.65-2.65c0.23-0.98,0.5-2.06,0.79-3.26
				C483.45,35.94,483.77,34.64,484.1,33.24z M500.55,51.02c0.45,0,0.76-0.24,0.92-0.72c0-0.01,0-0.04,0.01-0.07
				c0.01-0.03,0.02-0.08,0.03-0.15c0.01-0.07,0.04-0.18,0.08-0.31c0.04-0.13,0.08-0.3,0.12-0.49c0.04-0.2,0.1-0.45,0.18-0.75
				c0.07-0.3,0.16-0.65,0.26-1.04c0.1-0.39,0.22-0.85,0.34-1.38c0.12-0.53,0.27-1.12,0.43-1.79c0.16-0.66,0.34-1.41,0.55-2.23
				c0.2-0.82,0.43-1.72,0.67-2.71c0.24-0.99,0.51-2.07,0.8-3.26c0.04-0.28-0.01-0.52-0.18-0.72c-0.16-0.2-0.41-0.31-0.75-0.31
				c-0.01,0-0.04,0-0.08,0c-0.04,0-0.1,0-0.18,0s-0.19,0-0.33,0c-0.14,0-0.32,0-0.55,0c-0.23,0-0.5,0-0.81,0c-0.31,0-0.69,0-1.13,0
				c-0.44,0-0.94,0-1.51,0c-0.57,0-1.22,0-1.94,0c-0.72,0-1.53,0-2.42,0c-0.89,0-1.87,0-2.94,0c-0.47,0-0.78,0.24-0.92,0.72
				c0,0.01,0,0.04-0.01,0.07c-0.01,0.03-0.02,0.08-0.04,0.15c-0.02,0.07-0.05,0.18-0.08,0.31c-0.03,0.13-0.07,0.3-0.12,0.49
				c-0.05,0.2-0.11,0.45-0.19,0.75c-0.07,0.3-0.16,0.65-0.25,1.04c-0.1,0.39-0.2,0.85-0.33,1.38c-0.12,0.53-0.27,1.12-0.44,1.79
				c-0.17,0.67-0.35,1.41-0.55,2.23s-0.42,1.72-0.66,2.71c-0.24,0.99-0.51,2.07-0.8,3.26c-0.04,0.28,0.03,0.52,0.22,0.72
				c0.19,0.21,0.42,0.31,0.7,0.31c0.01,0,0.04,0,0.08,0c0.04,0,0.09,0,0.18,0c0.08,0,0.19,0,0.33,0s0.32,0,0.54,0
				c0.22,0,0.49,0,0.81,0s0.7,0,1.14,0c0.44,0,0.94,0,1.51,0s1.21,0,1.93,0c0.72,0,1.52,0,2.41,0
				C498.48,51.02,499.46,51.02,500.55,51.02z"/>
		</g>
		<polygon class="st4" points="455.16,51.86 464.3,51.86 462.92,57.92 453.79,57.92 		"/>
	</g>
	<g>
		<polygon class="st4" points="7.47,58.86 46.94,81.17 46.94,69.88 17.53,52.95 17.53,48.42 46.94,65.1 46.94,53.67 7.47,30.73 		
			"/>
		<polygon class="st0" points="50.58,53.68 50.58,81.18 90.05,58.86 90.05,30.73 		"/>
		<polygon class="st0" points="48.51,4.92 9.34,27.91 48.51,50.96 61.11,43.64 61.11,36.76 48.51,28.84 48.51,39.25 29.47,27.94 
			48.51,17.4 66.22,28.33 62.94,30.41 73.45,36.33 88.18,27.94 		"/>
		<linearGradient id="SVGID_1_" gradientUnits="userSpaceOnUse" x1="9.3402" y1="16.4321" x2="48.5147" y2="16.4321">
			<stop  offset="0" style="stop-color:#FFFFFF;stop-opacity:0.08"/>
			<stop  offset="1" style="stop-color:#006838"/>
		</linearGradient>
		<polygon class="st1" points="48.51,17.4 48.51,4.92 9.34,27.91 29.47,27.94 		"/>
		
			<linearGradient id="SVGID_00000153695365191684605150000005502761130187838398_" gradientUnits="userSpaceOnUse" x1="50.578" y1="55.9558" x2="90.0459" y2="55.9558">
			<stop  offset="0" style="stop-color:#FFFFFF;stop-opacity:0.08"/>
			<stop  offset="1" style="stop-color:#006838"/>
		</linearGradient>
		<polygon style="fill:url(#SVGID_00000153695365191684605150000005502761130187838398_);" points="90.05,30.73 50.58,81.18 
			90.05,58.86 		"/>
		
			<linearGradient id="SVGID_00000172404994688252416040000009642117334974494631_" gradientUnits="userSpaceOnUse" x1="7.4712" y1="47.9177" x2="46.9392" y2="47.9177">
			<stop  offset="0" style="stop-color:#FFFFFF;stop-opacity:0.08"/>
			<stop  offset="0.9659" style="stop-color:#939598;stop-opacity:0.97"/>
			<stop  offset="1" style="stop-color:#006838"/>
		</linearGradient>
		<polygon style="fill:url(#SVGID_00000172404994688252416040000009642117334974494631_);" points="46.94,65.1 7.47,30.73 
			7.47,58.86 17.53,52.95 17.53,48.42 		"/>
	</g>
</g>
</svg>
