<?xml version="1.0" encoding="utf-8"?>
<!-- Generator: Adobe Illustrator 27.1.1, SVG Export Plug-In . SVG Version: 6.00 Build 0)  -->
<svg version="1.1" id="Layer_1" xmlns="http://www.w3.org/2000/svg" xmlns:xlink="http://www.w3.org/1999/xlink" x="0px" y="0px"
	 viewBox="0 0 720 720" style="enable-background:new 0 0 720 720;" xml:space="preserve">
<style type="text/css">
	.st0{fill:#00E59B;}
	.st1{fill:url(#SVGID_1_);}
	.st2{fill:url(#SVGID_00000144305466293450451080000001015890508388936840_);}
	.st3{fill:url(#SVGID_00000085211655142197899640000006406965989029269435_);}
	.st4{fill:#FFFFFF;}
	.st5{fill:url(#SVGID_00000089564601397698669930000013779168103214171554_);}
	.st6{fill:url(#SVGID_00000138558712363934440330000001424512251639846788_);}
	.st7{fill:url(#SVGID_00000090296710379506653400000016678757773284134529_);}
	.st8{fill:url(#SVGID_00000090973949627914544500000014342190519113427866_);}
	.st9{fill:url(#SVGID_00000002345546226775567210000011932085570900243330_);}
	.st10{fill:url(#SVGID_00000005981644256017219550000015766306473647393192_);}
	.st11{fill:url(#SVGID_00000143582798398883477870000003690925832612921016_);}
	.st12{fill:url(#SVGID_00000061446033611779501260000003534164598457229448_);}
	.st13{fill:url(#SVGID_00000080896898103030517920000016115329556157882772_);}
</style>
<g>
	<g>
		<path d="M170.62,348.37c1.36-3.88,3.86-5.83,7.48-5.83h26.97l-1.92,8.13v-0.08h-8.69h-14.9c-0.19,0-0.39,0.08-0.6,0.24
			c-0.21,0.16-0.36,0.37-0.45,0.63l-3.96,16.95c-0.05,0.33,0.03,0.62,0.24,0.87c0.21,0.25,0.48,0.37,0.81,0.37h13.59
			c0.19,0,0.39-0.08,0.59-0.24c0.2-0.16,0.31-0.37,0.33-0.63l1.1-4.64H177.7l1.78-8.03h14.93h7.45c-0.77,3.31-1.77,7.54-2.99,12.7
			c-0.23,1-0.47,2.02-0.73,3.07c-1.36,3.88-3.87,5.83-7.5,5.83H173.4c-2.45,0-4.44-0.91-5.97-2.73c-1.53-1.82-2.05-3.92-1.56-6.3
			L170.62,348.37z"/>
		<path d="M207.4,348.37c1.38-3.88,3.8-5.83,7.27-5.83h25.64l-8.53,35.16h-8.34l2.36-9.71l4.25-17.4h-14.17
			c-0.19,0-0.39,0.08-0.59,0.24c-0.2,0.16-0.34,0.37-0.41,0.63l-2.07,8.5h12.52l-1.97,8.06h-12.49l-2.36,9.68h-8.29L207.4,348.37z"
			/>
		<path d="M268.95,377.7c-0.53,0-1.02,0-1.47,0c-0.45,0-0.86,0-1.23,0c-0.38,0-0.72,0-1.02,0c-0.31,0-0.58,0-0.83,0
			c-0.25,0-0.46,0-0.66,0c-0.19,0-0.36,0-0.51,0c-0.15,0-0.27,0-0.37,0c-0.1,0-0.18,0-0.25,0s-0.13,0-0.17,0c-0.04,0-0.07,0-0.09,0
			c-0.02,0-0.04,0-0.05,0c0.82-3.24,1.52-5.99,2.09-8.25c0.57-2.27,1.03-4.12,1.38-5.58c0.35-1.45,0.62-2.58,0.8-3.4
			c0.18-0.81,0.35-1.53,0.49-2.14c-4.13,6.18-8,11.77-11.62,16.79c-1.24,0-2.35-0.39-3.33-1.17c-0.98-0.78-1.62-1.8-1.92-3.06
			c-0.19-0.93-0.37-1.8-0.52-2.61c-0.16-0.81-0.31-1.57-0.45-2.27c-0.14-0.7-0.27-1.34-0.38-1.93c-0.11-0.59-0.22-1.12-0.31-1.61
			c-0.1-0.49-0.18-0.93-0.26-1.33c-0.08-0.39-0.15-0.75-0.21-1.06c-0.06-0.31-0.11-0.59-0.16-0.83c-0.04-0.24-0.08-0.44-0.12-0.62
			c-0.04-0.17-0.07-0.33-0.09-0.46c-0.03-0.13-0.05-0.24-0.07-0.31c-0.02-0.08-0.03-0.14-0.04-0.18c-0.01-0.04-0.01-0.07-0.01-0.09
			c-0.82,3.38-1.52,6.24-2.09,8.59c-0.57,2.35-1.03,4.29-1.38,5.8c-0.35,1.51-0.62,2.69-0.8,3.52c-0.18,0.83-0.35,1.56-0.49,2.19
			c-0.61,0-1.19,0-1.72,0c-0.53,0-1.02,0-1.47,0c-0.45,0-0.86,0-1.23,0s-0.72,0-1.04,0c-0.31,0-0.59,0-0.84,0c-0.25,0-0.46,0-0.66,0
			s-0.36,0-0.51,0c-0.15,0-0.28,0-0.38,0c-0.1,0-0.19,0-0.26,0c-0.07,0-0.13,0-0.17,0s-0.07,0-0.09,0c-0.02,0-0.03,0-0.05,0
			c0.52-2.22,1.01-4.29,1.47-6.22c0.45-1.92,0.87-3.7,1.25-5.34c0.38-1.64,0.73-3.14,1.05-4.51c0.32-1.37,0.62-2.63,0.89-3.77
			c0.27-1.14,0.52-2.16,0.73-3.08c0.22-0.92,0.41-1.74,0.58-2.47c0.17-0.73,0.31-1.36,0.45-1.92c0.13-0.55,0.24-1.03,0.34-1.44
			c0.1-0.41,0.18-0.76,0.25-1.04c0.07-0.28,0.12-0.51,0.16-0.7c0.03-0.18,0.07-0.32,0.09-0.42c0.03-0.1,0.04-0.17,0.05-0.21
			s0.02-0.07,0.03-0.08c0.01-0.01,0-0.01-0.01-0.01c0.96-2.64,2.69-3.96,5.17-3.96c0.54,0,1.03,0,1.46,0c0.43,0,0.8,0,1.13,0
			c0.32,0,0.61,0,0.85,0c0.25,0,0.45,0,0.63,0c0.17,0,0.32,0,0.43,0c0.11,0,0.2,0,0.26,0c0.06,0,0.11,0,0.14,0c0.03,0,0.06,0,0.08,0
			c0.23,1.1,0.44,2.14,0.64,3.12c0.2,0.98,0.39,1.9,0.56,2.76c0.17,0.86,0.34,1.67,0.5,2.43c0.16,0.76,0.3,1.47,0.43,2.13
			c0.13,0.66,0.25,1.26,0.37,1.82c0.11,0.56,0.22,1.08,0.31,1.56c0.1,0.48,0.18,0.92,0.26,1.31c0.08,0.39,0.15,0.75,0.21,1.08
			c0.06,0.32,0.12,0.62,0.17,0.88c0.05,0.26,0.1,0.49,0.13,0.7c0.03,0.2,0.07,0.38,0.11,0.54c0.03,0.16,0.06,0.29,0.08,0.39
			c0.02,0.1,0.03,0.2,0.04,0.28c0.01,0.08,0.02,0.14,0.03,0.18c0.01,0.04,0.02,0.07,0.03,0.09c0.01,0.02,0.01,0.04,0.01,0.05h-0.03
			c1.15-1.64,2.21-3.16,3.17-4.54c0.96-1.38,1.84-2.64,2.64-3.77c0.8-1.13,1.51-2.15,2.15-3.06c0.64-0.91,1.21-1.72,1.72-2.44
			c0.51-0.72,0.95-1.35,1.34-1.89c0.38-0.54,0.72-1.01,1-1.39c0.28-0.38,0.52-0.71,0.72-0.98c0.2-0.27,0.36-0.49,0.49-0.64
			c0.12-0.16,0.21-0.28,0.28-0.37c0.06-0.09,0.13-0.17,0.2-0.24c0.96,0,1.83,0,2.6,0c0.77,0,1.46,0,2.06,0c0.6,0,1.14,0,1.61,0
			c0.47,0,0.88,0,1.22,0s0.63,0,0.87,0c0.24,0,0.43,0,0.58,0c0.15,0,0.27,0,0.35,0c0.09,0,0.15,0,0.18,0c0.03,0,0.06,0,0.08,0
			c-0.56,2.34-1.08,4.54-1.55,6.57c-0.47,2.04-0.92,3.94-1.34,5.69c-0.42,1.76-0.8,3.39-1.15,4.89c-0.35,1.5-0.67,2.89-0.97,4.15
			c-0.3,1.26-0.57,2.4-0.81,3.44c-0.25,1.03-0.47,1.97-0.67,2.82c-0.2,0.85-0.38,1.61-0.54,2.27c-0.16,0.66-0.29,1.25-0.41,1.76
			c-0.11,0.51-0.21,0.95-0.3,1.33c-0.09,0.38-0.16,0.69-0.22,0.94s-0.11,0.46-0.16,0.63c-0.04,0.17-0.07,0.3-0.09,0.39
			c-0.02,0.1-0.03,0.16-0.04,0.2s-0.02,0.06-0.04,0.08C270.06,377.7,269.48,377.7,268.95,377.7z"/>
		<path d="M280.48,348.37c1.36-3.88,3.86-5.83,7.48-5.83h24.25l-1.86,8.06h-14.12h-6.8c-0.19,0-0.39,0.08-0.6,0.24
			c-0.21,0.16-0.36,0.37-0.45,0.63l-1.08,4.64h14.25l-1.78,8.03h-14.33l-1,4.28c-0.05,0.33,0.03,0.62,0.24,0.87
			c0.21,0.25,0.47,0.37,0.79,0.37h10.84v0.03h9.6c-0.56,2.45-1.18,5.13-1.86,8.03h-20.73c-2.47,0-4.47-0.91-6-2.73
			c-1.53-1.82-2.05-3.92-1.56-6.3L280.48,348.37z"/>
		<path class="st0" d="M315.17,348.37c1.4-3.88,3.91-5.83,7.53-5.83h24.25l-1.94,8.06h-14.12h-6.8c-0.19,0-0.39,0.08-0.6,0.24
			c-0.21,0.16-0.36,0.37-0.45,0.63l-4.09,16.95c-0.05,0.33,0.03,0.62,0.24,0.87c0.21,0.25,0.48,0.37,0.81,0.37h10.81v0.03h9.63
			c-0.59,2.45-1.24,5.13-1.94,8.03h-20.76c-2.45,0-4.43-0.91-5.96-2.73c-1.52-1.82-2.03-3.92-1.52-6.3L315.17,348.37z"/>
		<path class="st0" d="M359.15,366.31h-5.54c0.02-0.02,0.03-0.04,0.03-0.05c0-0.02,0-0.03,0-0.04s0-0.02,0-0.03s0,0,0,0.01
			s0,0.05-0.01,0.09c-0.01,0.04-0.02,0.1-0.04,0.17c-0.02,0.07-0.04,0.16-0.07,0.28c-0.03,0.11-0.06,0.25-0.11,0.41
			c-0.04,0.16-0.09,0.34-0.13,0.55c-0.04,0.21-0.1,0.45-0.16,0.72c-0.06,0.27-0.13,0.58-0.21,0.93c-0.08,0.35-0.17,0.73-0.26,1.14
			c-0.1,0.41-0.21,0.87-0.33,1.36c-0.12,0.5-0.25,1.05-0.38,1.64c-0.13,0.6-0.28,1.24-0.43,1.93c-0.16,0.69-0.32,1.43-0.5,2.22
			h-8.74l6.93-29.31c1.36-3.87,3.84-5.8,7.43-5.8h17.08c2.43,0,4.4,0.91,5.92,2.73c1.51,1.82,2.02,3.92,1.53,6.3
			c-0.58,2.61-1.24,5.59-1.99,8.95c-0.42,1.7-1.32,3.09-2.69,4.17c-1.37,1.09-2.96,1.63-4.76,1.63h-3.2l6.87,11.39h-9.34
			L359.15,366.31z M371.22,357.42l1.34-5.62c0.05-0.31-0.03-0.6-0.24-0.85c-0.21-0.25-0.47-0.38-0.79-0.38h-13.49
			c-0.19,0-0.39,0.08-0.6,0.25c-0.21,0.17-0.35,0.37-0.42,0.62l-1.47,6.72h14.62C370.69,358.15,371.04,357.91,371.22,357.42z"/>
		<path class="st0" d="M384.55,348.37c1.36-3.88,3.86-5.83,7.48-5.83h24.25l-1.86,8.06h-14.12h-6.8c-0.19,0-0.39,0.08-0.6,0.24
			c-0.21,0.16-0.36,0.37-0.45,0.63l-1.08,4.64h14.25l-1.78,8.03h-14.33l-1,4.28c-0.05,0.33,0.03,0.62,0.24,0.87
			c0.21,0.25,0.47,0.37,0.79,0.37h10.84v0.03h9.6c-0.56,2.45-1.18,5.13-1.86,8.03h-20.73c-2.47,0-4.47-0.91-6-2.73
			c-1.53-1.82-2.05-3.92-1.56-6.3L384.55,348.37z"/>
		<path class="st0" d="M418.82,348.37c1.38-3.88,3.8-5.83,7.27-5.83h25.64l-8.53,35.16h-8.34l2.36-9.71l4.25-17.4h-14.17
			c-0.19,0-0.39,0.08-0.59,0.24c-0.2,0.16-0.34,0.37-0.41,0.63l-2.07,8.5h12.52l-1.97,8.06h-12.49l-2.36,9.68h-8.29L418.82,348.37z"
			/>
		<path class="st0" d="M464.27,350.54h-11.65l1.97-8h31.2l-1.97,8H472.5l-5.75,27.16h-8.34L464.27,350.54z"/>
		<path class="st0" d="M487.65,348.37c1.54-3.88,4.22-5.83,8.06-5.83c0.02,0,0.04,0,0.08,0c0.03,0,0.1,0,0.2,0s0.23,0,0.39,0
			c0.17,0,0.38,0,0.64,0c0.26,0,0.58,0,0.96,0c0.38,0,0.82,0,1.34,0c0.52,0,1.11,0,1.78,0c0.67,0,1.43,0,2.28,0c0.85,0,1.8,0,2.85,0
			c1.05,0,2.21,0,3.48,0s2.66,0,4.19,0c2.59,0,4.69,0.91,6.31,2.73c1.62,1.82,2.17,3.92,1.67,6.3c0,0.02-0.01,0.05-0.03,0.11
			c-0.02,0.05-0.04,0.13-0.07,0.22c-0.03,0.1-0.06,0.24-0.11,0.43c-0.04,0.19-0.1,0.43-0.17,0.72c-0.07,0.29-0.16,0.64-0.26,1.06
			c-0.11,0.42-0.23,0.92-0.37,1.5c-0.14,0.58-0.3,1.24-0.49,1.99c-0.18,0.75-0.39,1.6-0.62,2.55s-0.49,2-0.77,3.18
			c-0.29,1.17-0.6,2.47-0.94,3.9c-0.34,1.43-0.72,2.98-1.14,4.66c-1.38,3.88-4.06,5.83-8.03,5.83c-0.02,0-0.05,0-0.09,0
			c-0.04,0-0.11,0-0.2,0c-0.09,0-0.21,0-0.38,0c-0.17,0-0.38,0-0.64,0c-0.26,0-0.58,0-0.94,0s-0.81,0-1.33,0c-0.52,0-1.11,0-1.77,0
			s-1.42,0-2.26,0s-1.78,0-2.83,0s-2.2,0-3.46,0s-2.64,0-4.15,0c-2.66,0-4.79-0.91-6.4-2.73c-1.61-1.82-2.18-3.92-1.71-6.3
			c0-0.02,0-0.05,0.01-0.1c0.01-0.05,0.03-0.13,0.05-0.22c0.03-0.1,0.06-0.24,0.11-0.43c0.04-0.19,0.11-0.43,0.18-0.72
			c0.08-0.29,0.17-0.64,0.26-1.06c0.1-0.42,0.21-0.92,0.35-1.5c0.14-0.58,0.3-1.24,0.49-1.99c0.18-0.75,0.39-1.6,0.63-2.55
			c0.24-0.94,0.49-2,0.77-3.17c0.28-1.17,0.59-2.47,0.94-3.9C486.87,351.6,487.24,350.05,487.65,348.37z M507.33,369.65
			c0.54,0,0.91-0.29,1.1-0.87c0-0.02,0-0.04,0.01-0.08c0.01-0.03,0.02-0.1,0.04-0.18c0.02-0.09,0.05-0.21,0.09-0.37
			c0.04-0.16,0.09-0.35,0.14-0.59c0.05-0.24,0.12-0.53,0.21-0.89c0.09-0.36,0.19-0.77,0.31-1.25c0.12-0.47,0.26-1.02,0.41-1.65
			c0.15-0.63,0.32-1.34,0.51-2.14c0.19-0.8,0.41-1.68,0.66-2.66c0.25-0.98,0.51-2.06,0.8-3.24c0.29-1.18,0.61-2.48,0.96-3.9
			c0.05-0.33-0.02-0.62-0.21-0.87c-0.19-0.24-0.49-0.37-0.89-0.37c-0.02,0-0.05,0-0.09,0s-0.11,0-0.21,0c-0.1,0-0.23,0-0.39,0
			c-0.17,0-0.38,0-0.66,0c-0.27,0-0.59,0-0.97,0c-0.38,0-0.83,0-1.35,0c-0.52,0-1.13,0-1.81,0c-0.68,0-1.46,0-2.32,0
			c-0.87,0-1.83,0-2.9,0c-1.07,0-2.24,0-3.52,0c-0.56,0-0.93,0.29-1.1,0.87c0,0.02,0,0.04-0.01,0.08c-0.01,0.04-0.03,0.1-0.05,0.18
			c-0.03,0.09-0.06,0.21-0.09,0.37c-0.04,0.16-0.08,0.35-0.14,0.59c-0.06,0.24-0.14,0.53-0.22,0.89c-0.09,0.36-0.19,0.77-0.3,1.25
			c-0.11,0.47-0.25,1.02-0.39,1.65c-0.15,0.63-0.32,1.34-0.52,2.14c-0.2,0.8-0.42,1.68-0.66,2.66c-0.24,0.98-0.5,2.06-0.79,3.24
			c-0.29,1.18-0.61,2.48-0.96,3.9c-0.05,0.33,0.03,0.62,0.26,0.87c0.23,0.25,0.51,0.37,0.84,0.37c0.02,0,0.05,0,0.09,0
			c0.04,0,0.11,0,0.21,0c0.1,0,0.23,0,0.39,0c0.17,0,0.38,0,0.64,0c0.26,0,0.59,0,0.97,0s0.84,0,1.36,0c0.52,0,1.13,0,1.81,0
			c0.68,0,1.45,0,2.31,0c0.86,0,1.82,0,2.89,0C504.85,369.65,506.03,369.65,507.33,369.65z"/>
		<path class="st0" d="M534.85,366.31h-5.54c0.02-0.02,0.03-0.04,0.03-0.05c0-0.02,0-0.03,0-0.04s0-0.02,0-0.03s0,0,0,0.01
			s0,0.05-0.01,0.09c-0.01,0.04-0.02,0.1-0.04,0.17c-0.02,0.07-0.04,0.16-0.07,0.28c-0.03,0.11-0.06,0.25-0.11,0.41
			c-0.04,0.16-0.09,0.34-0.13,0.55c-0.04,0.21-0.1,0.45-0.16,0.72s-0.13,0.58-0.21,0.93c-0.08,0.35-0.17,0.73-0.26,1.14
			c-0.1,0.41-0.21,0.87-0.33,1.36c-0.12,0.5-0.25,1.05-0.38,1.64c-0.13,0.6-0.28,1.24-0.43,1.93c-0.16,0.69-0.32,1.43-0.5,2.22
			h-8.74l6.93-29.31c1.36-3.87,3.84-5.8,7.43-5.8h17.08c2.43,0,4.4,0.91,5.92,2.73c1.51,1.82,2.02,3.92,1.53,6.3
			c-0.58,2.61-1.24,5.59-1.99,8.95c-0.42,1.7-1.32,3.09-2.69,4.17c-1.37,1.09-2.96,1.63-4.76,1.63h-3.2l6.87,11.39h-9.34
			L534.85,366.31z M546.92,357.42l1.34-5.62c0.05-0.31-0.03-0.6-0.24-0.85c-0.21-0.25-0.47-0.38-0.79-0.38h-13.49
			c-0.19,0-0.39,0.08-0.6,0.25c-0.21,0.17-0.35,0.37-0.42,0.62l-1.47,6.72h14.62C546.4,358.15,546.75,357.91,546.92,357.42z"/>
		<path class="st0" d="M569.12,350.6c-0.25,0-0.46,0.07-0.63,0.22c-0.18,0.15-0.3,0.32-0.37,0.51c0,0.02-0.01,0.04-0.03,0.08
			c-0.02,0.04-0.04,0.1-0.05,0.18c-0.02,0.09-0.04,0.21-0.08,0.38c-0.04,0.17-0.08,0.37-0.14,0.62c-0.06,0.25-0.14,0.55-0.22,0.92
			c-0.09,0.37-0.19,0.8-0.32,1.29c-0.05,0.33,0.02,0.62,0.21,0.87c0.19,0.25,0.45,0.37,0.76,0.37c0.02,0,0.04,0,0.08,0
			c0.03,0,0.09,0,0.17,0c0.08,0,0.2,0,0.35,0c0.16,0,0.35,0,0.59,0s0.52,0,0.87,0c0.34,0,0.75,0,1.22,0c0.47,0,1.01,0,1.63,0
			c0.61,0,1.31,0,2.09,0c0.78,0,1.65,0,2.61,0c0.96,0,2.02,0,3.18,0c2.36,0,4.25,0.91,5.65,2.74c1.41,1.83,1.84,3.93,1.3,6.31
			c0,0.02,0,0.04-0.01,0.08s-0.02,0.09-0.04,0.17c-0.02,0.08-0.04,0.19-0.08,0.34c-0.04,0.15-0.08,0.34-0.14,0.56
			c-0.06,0.23-0.13,0.51-0.21,0.85c-0.08,0.34-0.17,0.74-0.29,1.19c-0.11,0.45-0.25,0.98-0.39,1.57c-0.15,0.6-0.31,1.27-0.49,2.02
			c-0.45,1.71-1.36,3.11-2.73,4.2c-1.36,1.09-2.95,1.63-4.75,1.63c-0.02,0-0.05,0-0.09,0s-0.12,0-0.22,0s-0.25,0-0.43,0
			s-0.42,0-0.71,0c-0.29,0-0.64,0-1.06,0c-0.42,0-0.92,0-1.5,0s-1.24,0-1.98,0c-0.74,0-1.59,0-2.53,0c-0.94,0-2,0-3.16,0
			c-1.16,0-2.45,0-3.87,0c-1.42,0-2.97,0-4.64,0s-3.51,0-5.48,0c0-0.02,0-0.05,0.01-0.09c0.01-0.04,0.03-0.11,0.05-0.21
			c0.03-0.1,0.06-0.23,0.1-0.41c0.04-0.17,0.1-0.4,0.17-0.68c0.07-0.28,0.15-0.62,0.24-1.02c0.09-0.4,0.2-0.88,0.33-1.43
			c0.13-0.55,0.28-1.18,0.46-1.9c0.17-0.72,0.37-1.52,0.58-2.41c0.02,0,0.05,0,0.09,0c0.04,0,0.11,0,0.2,0s0.21,0,0.38,0
			c0.17,0,0.38,0,0.63,0c0.25,0,0.56,0,0.93,0s0.8,0,1.3,0s1.08,0,1.73,0s1.4,0,2.23,0s1.76,0,2.79,0c1.03,0,2.17,0,3.41,0
			c1.24,0,2.6,0,4.08,0c1.48,0,3.08,0,4.81,0c0.49,0,0.83-0.25,1.02-0.76c0-0.02,0-0.04,0.01-0.08c0.01-0.03,0.02-0.1,0.04-0.18
			c0.02-0.09,0.05-0.21,0.09-0.38c0.04-0.17,0.1-0.37,0.16-0.62s0.14-0.55,0.22-0.92c0.09-0.37,0.18-0.8,0.29-1.29
			c0.12-0.31,0.09-0.6-0.09-0.85c-0.18-0.25-0.43-0.38-0.75-0.38c0.02,0,0.02,0,0.01,0s-0.04,0-0.08,0c-0.04,0-0.11,0-0.18,0
			c-0.08,0-0.2,0-0.35,0c-0.16,0-0.36,0-0.6,0c-0.25,0-0.54,0-0.88,0c-0.34,0-0.75,0-1.22,0s-1.02,0-1.64,0c-0.62,0-1.33,0-2.11,0
			s-1.67,0-2.64,0c-0.97,0-2.03,0-3.19,0c-2.36,0-4.25-0.9-5.67-2.69c-1.42-1.79-1.85-3.91-1.31-6.34c0-0.02,0-0.04,0.01-0.08
			c0.01-0.03,0.03-0.1,0.05-0.18c0.03-0.09,0.06-0.21,0.09-0.35c0.03-0.15,0.08-0.34,0.13-0.56c0.05-0.23,0.12-0.51,0.21-0.84
			c0.09-0.33,0.18-0.73,0.29-1.19c0.11-0.46,0.23-0.99,0.38-1.59c0.15-0.59,0.32-1.27,0.51-2.02c1.49-3.8,3.97-5.69,7.45-5.69
			c0.02,0,0.05,0,0.09,0c0.04,0,0.12,0,0.22,0c0.11,0,0.25,0,0.45,0c0.19,0,0.43,0,0.72,0s0.64,0,1.06,0c0.42,0,0.92,0,1.5,0
			c0.58,0,1.24,0,1.98,0s1.59,0,2.55,0c0.95,0,2.02,0,3.19,0c1.17,0,2.47,0,3.88,0c1.42,0,2.97,0,4.67,0c1.7,0,3.53,0,5.51,0
			c0,0.02,0,0.05-0.01,0.09c-0.01,0.04-0.03,0.11-0.05,0.21c-0.03,0.1-0.06,0.23-0.11,0.41c-0.04,0.18-0.11,0.4-0.18,0.67
			c-0.08,0.27-0.17,0.6-0.26,1c-0.1,0.39-0.21,0.86-0.35,1.4c-0.14,0.54-0.3,1.17-0.49,1.88c-0.18,0.71-0.39,1.51-0.62,2.4
			c-0.02,0-0.04,0-0.08,0c-0.04,0-0.1,0-0.2,0s-0.22,0-0.38,0c-0.16,0-0.37,0-0.63,0c-0.26,0-0.58,0-0.94,0c-0.37,0-0.8,0-1.3,0
			c-0.5,0-1.08,0-1.73,0s-1.4,0-2.23,0c-0.83,0-1.76,0-2.78,0s-2.16,0-3.4,0c-1.24,0-2.61,0-4.09,0
			C572.46,350.6,570.85,350.6,569.12,350.6z"/>
		<g>
			<path d="M614.17,350.62h8.69l-6.26,26.34c-0.03,0.17-0.09,0.36-0.16,0.55h-8.82c0.12-0.17,0.22-0.36,0.29-0.55L614.17,350.62z
				 M616,342.53h8.69l-1.3,5.77h-8.69L616,342.53z"/>
			<path d="M626.6,348.32c1.53-3.86,4.2-5.79,8.01-5.79c0.02,0,0.04,0,0.08,0c0.03,0,0.1,0,0.2,0c0.1,0,0.23,0,0.39,0
				c0.16,0,0.38,0,0.64,0c0.26,0,0.58,0,0.95,0s0.82,0,1.33,0s1.1,0,1.77,0c0.67,0,1.43,0,2.27,0c0.84,0,1.79,0,2.83,0
				c1.04,0,2.2,0,3.46,0c1.26,0,2.65,0,4.16,0c2.58,0,4.67,0.9,6.28,2.71c1.61,1.81,2.16,3.9,1.66,6.26c0,0.02-0.01,0.05-0.03,0.1
				s-0.04,0.13-0.07,0.22c-0.03,0.1-0.06,0.24-0.1,0.43c-0.04,0.19-0.1,0.43-0.17,0.72c-0.07,0.29-0.16,0.64-0.26,1.06
				c-0.1,0.42-0.23,0.91-0.37,1.49c-0.14,0.57-0.3,1.24-0.48,1.98c-0.18,0.75-0.39,1.59-0.61,2.53c-0.23,0.94-0.48,1.99-0.77,3.16
				c-0.29,1.17-0.6,2.46-0.94,3.88c-0.34,1.42-0.72,2.96-1.14,4.63c-1.38,3.86-4.04,5.79-7.99,5.79c-0.02,0-0.05,0-0.09,0
				c-0.04,0-0.11,0-0.2,0c-0.09,0-0.21,0-0.38,0c-0.17,0-0.38,0-0.64,0c-0.26,0-0.57,0-0.94,0s-0.8,0-1.32,0s-1.1,0-1.76,0
				c-0.66,0-1.41,0-2.24,0c-0.84,0-1.78,0-2.82,0c-1.04,0-2.19,0-3.45,0c-1.25,0-2.63,0-4.12,0c-2.65,0-4.77-0.9-6.37-2.71
				c-1.6-1.81-2.17-3.9-1.7-6.26c0-0.02,0-0.05,0.01-0.11c0.01-0.05,0.03-0.13,0.05-0.22c0.03-0.1,0.06-0.24,0.1-0.43
				c0.04-0.19,0.1-0.43,0.18-0.72c0.08-0.29,0.17-0.64,0.26-1.06c0.1-0.42,0.21-0.91,0.35-1.49c0.14-0.57,0.3-1.24,0.48-1.98
				c0.18-0.75,0.39-1.59,0.63-2.53c0.23-0.94,0.49-1.99,0.77-3.16c0.28-1.17,0.59-2.46,0.94-3.88
				C625.82,351.53,626.19,349.99,626.6,348.32z M646.17,369.49c0.54,0,0.9-0.29,1.1-0.86c0-0.02,0-0.04,0.01-0.08
				c0.01-0.03,0.02-0.1,0.04-0.18s0.05-0.21,0.09-0.37c0.04-0.16,0.09-0.35,0.14-0.59c0.05-0.24,0.12-0.53,0.21-0.89
				c0.09-0.36,0.19-0.77,0.31-1.24c0.12-0.47,0.26-1.02,0.4-1.64c0.15-0.63,0.32-1.34,0.51-2.13c0.19-0.79,0.41-1.67,0.65-2.65
				c0.24-0.97,0.51-2.05,0.8-3.22c0.29-1.17,0.6-2.47,0.95-3.88c0.05-0.33-0.02-0.62-0.21-0.86c-0.19-0.24-0.49-0.37-0.89-0.37
				c-0.02,0-0.05,0-0.09,0c-0.04,0-0.11,0-0.21,0s-0.23,0-0.39,0s-0.38,0-0.65,0c-0.27,0-0.59,0-0.97,0c-0.37,0-0.82,0-1.34,0
				c-0.52,0-1.12,0-1.8,0c-0.68,0-1.45,0-2.31,0c-0.86,0-1.82,0-2.88,0c-1.06,0-2.23,0-3.5,0c-0.56,0-0.92,0.29-1.1,0.86
				c0,0.02,0,0.04-0.01,0.08c-0.01,0.03-0.03,0.1-0.05,0.18c-0.03,0.09-0.06,0.21-0.09,0.37c-0.04,0.16-0.08,0.35-0.14,0.59
				c-0.06,0.23-0.13,0.53-0.22,0.89c-0.09,0.36-0.19,0.77-0.3,1.24c-0.11,0.47-0.24,1.02-0.39,1.64c-0.15,0.63-0.32,1.34-0.52,2.13
				c-0.2,0.79-0.42,1.67-0.65,2.65c-0.24,0.97-0.5,2.05-0.78,3.22c-0.29,1.17-0.6,2.47-0.95,3.88c-0.05,0.33,0.03,0.62,0.26,0.86
				c0.23,0.24,0.5,0.37,0.84,0.37c0.02,0,0.05,0,0.09,0c0.04,0,0.11,0,0.21,0c0.1,0,0.23,0,0.39,0c0.17,0,0.38,0,0.64,0
				c0.26,0,0.58,0,0.97,0s0.84,0,1.36,0c0.52,0,1.12,0,1.8,0c0.68,0,1.44,0,2.3,0c0.85,0,1.81,0,2.87,0
				C643.71,369.49,644.88,369.49,646.17,369.49z"/>
		</g>
		<polygon points="592.14,370.48 603.02,370.48 601.38,377.7 590.5,377.7 		"/>
	</g>
	<g>
		<polygon points="59.19,378.82 106.17,405.39 106.17,391.94 71.17,371.78 71.17,366.4 106.17,386.26 106.17,372.65 59.19,345.34 		
			"/>
		<polygon class="st0" points="110.5,372.65 110.5,405.39 157.49,378.82 157.49,345.34 		"/>
		<polygon class="st0" points="108.05,314.61 61.41,341.98 108.05,369.41 123.04,360.71 123.04,352.52 108.05,343.09 108.05,355.48 
			85.37,342.02 108.05,329.46 129.12,342.48 125.23,344.95 137.74,352 155.26,342.02 		"/>
		<linearGradient id="SVGID_1_" gradientUnits="userSpaceOnUse" x1="61.4131" y1="328.3134" x2="108.0486" y2="328.3134">
			<stop  offset="0" style="stop-color:#FFFFFF;stop-opacity:0.08"/>
			<stop  offset="1" style="stop-color:#006838"/>
		</linearGradient>
		<polygon class="st1" points="108.05,329.46 108.05,314.61 61.41,341.98 85.37,342.02 		"/>
		
			<linearGradient id="SVGID_00000072959319073722580720000017077433992191725233_" gradientUnits="userSpaceOnUse" x1="110.5048" y1="375.3646" x2="157.4895" y2="375.3646">
			<stop  offset="0" style="stop-color:#FFFFFF;stop-opacity:0.08"/>
			<stop  offset="1" style="stop-color:#006838"/>
		</linearGradient>
		<polygon style="fill:url(#SVGID_00000072959319073722580720000017077433992191725233_);" points="157.49,345.34 110.5,405.39 
			157.49,378.82 		"/>
		
			<linearGradient id="SVGID_00000004509300789514491800000014672118765328011663_" gradientUnits="userSpaceOnUse" x1="59.1882" y1="365.7956" x2="106.1729" y2="365.7956">
			<stop  offset="0" style="stop-color:#FFFFFF;stop-opacity:0.08"/>
			<stop  offset="0.9659" style="stop-color:#939598;stop-opacity:0.97"/>
			<stop  offset="1" style="stop-color:#006838"/>
		</linearGradient>
		<polygon style="fill:url(#SVGID_00000004509300789514491800000014672118765328011663_);" points="106.17,386.26 59.19,345.34 
			59.19,378.82 71.17,371.78 71.17,366.4 		"/>
	</g>
</g>
</svg>
