<?xml version="1.0" encoding="utf-8"?>
<!-- Generator: Adobe Illustrator 27.1.1, SVG Export Plug-In . SVG Version: 6.00 Build 0)  -->
<svg version="1.1" id="Layer_1" xmlns="http://www.w3.org/2000/svg" xmlns:xlink="http://www.w3.org/1999/xlink" x="0px" y="0px"
	 viewBox="0 0 720 86.1" style="enable-background:new 0 0 720 86.1;" xml:space="preserve">
<style type="text/css">
	.st0{fill:#00E59B;}
	.st1{fill:url(#SVGID_1_);}
	.st2{fill:url(#SVGID_00000138536452352132998380000011152435165807583134_);}
	.st3{fill:url(#SVGID_00000042004476502209396080000000409567822693859230_);}
	.st4{fill:#FFFFFF;}
	.st5{fill:url(#SVGID_00000119808281750363452930000009510060599161111996_);}
	.st6{fill:url(#SVGID_00000153670391229041064470000003118048816126502843_);}
	.st7{fill:url(#SVGID_00000134212981047469044050000009606800625518643335_);}
	.st8{fill:url(#SVGID_00000131348878122302460520000008154207150684465311_);}
	.st9{fill:url(#SVGID_00000107574526588398390950000008889330841618237858_);}
	.st10{fill:url(#SVGID_00000006676676875600162760000009235147839370855358_);}
	.st11{fill:url(#SVGID_00000007425512298101273410000013640641004085173634_);}
	.st12{fill:url(#SVGID_00000054959042483181434030000012031711159475527329_);}
	.st13{fill:url(#SVGID_00000155125830215389493260000003981887622564953021_);}
</style>
<g>
	<path d="M52.54,28.16c1.73-4.92,4.89-7.38,9.48-7.38H96.2l-2.43,10.31v-0.1H82.77H63.88c-0.24,0-0.5,0.1-0.76,0.3
		c-0.27,0.2-0.45,0.47-0.57,0.8l-5.02,21.48c-0.07,0.42,0.03,0.79,0.3,1.1c0.27,0.31,0.61,0.47,1.03,0.47h17.22
		c0.24,0,0.49-0.1,0.75-0.3c0.25-0.2,0.39-0.47,0.42-0.8l1.4-5.88H61.52l2.26-10.17H82.7h9.44c-0.98,4.19-2.24,9.55-3.79,16.09
		c-0.29,1.26-0.6,2.56-0.93,3.89c-1.73,4.92-4.9,7.38-9.51,7.38H56.07c-3.1,0-5.63-1.15-7.56-3.46c-1.94-2.3-2.6-4.97-1.98-7.98
		L52.54,28.16z"/>
	<path d="M99.16,28.16c1.75-4.92,4.82-7.38,9.21-7.38h32.49l-10.81,44.56h-10.57l2.99-12.3l5.39-22.05H109.9
		c-0.24,0-0.49,0.1-0.75,0.3c-0.25,0.2-0.43,0.47-0.52,0.8l-2.63,10.77h15.86l-2.49,10.21h-15.83l-2.99,12.27H90.05L99.16,28.16z"/>
	<path d="M177.15,65.34c-0.68,0-1.3,0-1.86,0c-0.56,0-1.09,0-1.56,0c-0.48,0-0.91,0-1.3,0c-0.39,0-0.74,0-1.05,0s-0.59,0-0.83,0
		s-0.46,0-0.65,0c-0.19,0-0.34,0-0.47,0c-0.12,0-0.23,0-0.32,0c-0.09,0-0.16,0-0.22,0s-0.09,0-0.12,0c-0.02,0-0.04,0-0.07,0
		c1.04-4.1,1.92-7.59,2.64-10.46c0.72-2.87,1.3-5.23,1.75-7.07c0.44-1.84,0.78-3.27,1.01-4.31c0.23-1.03,0.44-1.93,0.62-2.71
		c-5.23,7.82-10.14,14.92-14.73,21.28c-1.57,0-2.98-0.49-4.22-1.48c-1.24-0.99-2.05-2.28-2.43-3.87c-0.24-1.17-0.47-2.28-0.67-3.31
		c-0.2-1.03-0.39-1.99-0.56-2.88c-0.18-0.89-0.34-1.7-0.48-2.44c-0.14-0.74-0.28-1.42-0.4-2.04c-0.12-0.62-0.23-1.18-0.33-1.68
		c-0.1-0.5-0.19-0.95-0.27-1.35c-0.08-0.4-0.14-0.75-0.2-1.05s-0.11-0.56-0.15-0.78c-0.04-0.22-0.08-0.42-0.12-0.58
		c-0.03-0.17-0.06-0.3-0.08-0.4c-0.02-0.1-0.04-0.18-0.05-0.23c-0.01-0.06-0.02-0.09-0.02-0.12c-1.04,4.28-1.92,7.91-2.64,10.89
		c-0.72,2.98-1.3,5.43-1.75,7.35c-0.44,1.92-0.78,3.4-1.01,4.45c-0.23,1.05-0.44,1.98-0.61,2.78c-0.78,0-1.5,0-2.18,0
		c-0.68,0-1.3,0-1.86,0c-0.57,0-1.09,0-1.56,0s-0.91,0-1.31,0c-0.4,0-0.75,0-1.06,0s-0.59,0-0.83,0s-0.46,0-0.65,0
		c-0.19,0-0.35,0-0.48,0c-0.13,0-0.24,0-0.33,0c-0.09,0-0.16,0-0.22,0s-0.09,0-0.12,0c-0.02,0-0.04,0-0.07,0
		c0.66-2.81,1.28-5.44,1.86-7.88c0.58-2.44,1.1-4.69,1.58-6.77c0.48-2.07,0.92-3.98,1.33-5.72c0.41-1.74,0.79-3.33,1.13-4.77
		c0.34-1.44,0.65-2.74,0.93-3.91c0.28-1.16,0.52-2.21,0.73-3.13c0.21-0.92,0.4-1.73,0.57-2.43c0.17-0.7,0.31-1.31,0.43-1.83
		c0.12-0.52,0.23-0.96,0.32-1.31c0.09-0.35,0.15-0.65,0.2-0.88c0.04-0.23,0.08-0.41,0.12-0.53c0.03-0.12,0.05-0.21,0.07-0.27
		c0.01-0.06,0.02-0.09,0.03-0.1c0.01-0.01,0-0.02-0.02-0.02c1.22-3.35,3.4-5.02,6.55-5.02c0.69,0,1.3,0,1.85,0c0.54,0,1.02,0,1.43,0
		c0.41,0,0.77,0,1.08,0c0.31,0,0.58,0,0.8,0c0.22,0,0.4,0,0.55,0c0.14,0,0.25,0,0.33,0c0.08,0,0.14,0,0.18,0c0.04,0,0.08,0,0.1,0
		c0.29,1.4,0.56,2.72,0.81,3.96c0.26,1.24,0.49,2.41,0.71,3.49c0.22,1.09,0.43,2.11,0.63,3.08c0.2,0.96,0.38,1.86,0.55,2.69
		c0.17,0.83,0.32,1.6,0.47,2.31c0.14,0.71,0.28,1.37,0.4,1.98c0.12,0.61,0.23,1.16,0.33,1.66c0.1,0.5,0.19,0.95,0.27,1.36
		c0.08,0.41,0.15,0.78,0.22,1.11c0.07,0.33,0.12,0.63,0.17,0.88c0.04,0.26,0.09,0.48,0.13,0.68c0.04,0.2,0.08,0.37,0.1,0.5
		c0.02,0.13,0.04,0.25,0.05,0.35c0.01,0.1,0.02,0.18,0.03,0.23c0.01,0.05,0.02,0.09,0.03,0.12c0.01,0.02,0.02,0.04,0.02,0.07h-0.03
		c1.46-2.08,2.8-4,4.02-5.75c1.22-1.75,2.33-3.34,3.34-4.77c1.01-1.43,1.92-2.72,2.73-3.87c0.81-1.15,1.53-2.18,2.18-3.09
		c0.64-0.91,1.21-1.71,1.7-2.39c0.49-0.69,0.91-1.27,1.26-1.76c0.35-0.49,0.66-0.9,0.91-1.25c0.25-0.34,0.46-0.62,0.61-0.82
		c0.15-0.2,0.27-0.35,0.35-0.47c0.08-0.11,0.16-0.21,0.25-0.3c1.22,0,2.32,0,3.29,0c0.97,0,1.84,0,2.61,0c0.76,0,1.45,0,2.04,0
		s1.11,0,1.55,0c0.43,0,0.8,0,1.1,0s0.54,0,0.73,0c0.19,0,0.34,0,0.45,0c0.11,0,0.19,0,0.23,0c0.04,0,0.08,0,0.1,0
		c-0.71,2.97-1.36,5.75-1.96,8.33c-0.6,2.58-1.16,4.99-1.7,7.22c-0.53,2.23-1.02,4.3-1.46,6.2c-0.44,1.91-0.85,3.66-1.23,5.25
		c-0.38,1.6-0.72,3.05-1.03,4.36c-0.31,1.31-0.59,2.5-0.85,3.57c-0.26,1.08-0.48,2.03-0.68,2.88c-0.2,0.84-0.37,1.59-0.52,2.23
		c-0.14,0.64-0.27,1.2-0.38,1.68c-0.11,0.48-0.2,0.88-0.28,1.2s-0.14,0.59-0.2,0.8c-0.06,0.21-0.09,0.38-0.12,0.5
		c-0.02,0.12-0.04,0.2-0.05,0.25c-0.01,0.04-0.03,0.08-0.05,0.1C178.55,65.34,177.82,65.34,177.15,65.34z"/>
	<path d="M191.76,28.16c1.73-4.92,4.89-7.38,9.48-7.38h30.72l-2.36,10.21h-17.89h-8.61c-0.24,0-0.5,0.1-0.76,0.3
		c-0.27,0.2-0.45,0.47-0.56,0.8l-1.36,5.88h18.05l-2.26,10.17h-18.15l-1.26,5.42c-0.07,0.42,0.03,0.79,0.3,1.1
		c0.27,0.31,0.6,0.47,1,0.47h13.73v0.03h12.17c-0.71,3.1-1.5,6.49-2.36,10.17h-26.27c-3.13,0-5.66-1.15-7.6-3.46
		c-1.94-2.3-2.6-4.97-1.98-7.98L191.76,28.16z"/>
	<path class="st0" d="M235.72,28.16c1.77-4.92,4.95-7.38,9.54-7.38h30.72l-2.46,10.21h-17.89h-8.61c-0.24,0-0.5,0.1-0.76,0.3
		c-0.27,0.2-0.45,0.47-0.56,0.8l-5.19,21.48c-0.07,0.42,0.03,0.79,0.3,1.1c0.27,0.31,0.61,0.47,1.03,0.47h13.7v0.03h12.2
		c-0.75,3.1-1.57,6.49-2.46,10.17h-26.3c-3.1,0-5.62-1.15-7.55-3.46c-1.93-2.3-2.57-4.97-1.93-7.98L235.72,28.16z"/>
	<path class="st0" d="M291.44,50.91h-7.02c0.02-0.02,0.03-0.04,0.03-0.07c0-0.02,0-0.04,0-0.05s0-0.02,0-0.03s0-0.01,0,0.02
		c0,0.02-0.01,0.06-0.02,0.12c-0.01,0.05-0.03,0.13-0.05,0.22c-0.02,0.09-0.05,0.2-0.08,0.35c-0.03,0.14-0.08,0.32-0.13,0.52
		c-0.06,0.2-0.11,0.43-0.17,0.7c-0.06,0.27-0.12,0.57-0.2,0.91s-0.17,0.74-0.27,1.18c-0.1,0.44-0.21,0.93-0.33,1.45
		c-0.12,0.52-0.26,1.1-0.42,1.73c-0.15,0.63-0.32,1.32-0.48,2.08c-0.17,0.75-0.35,1.57-0.55,2.44c-0.2,0.88-0.41,1.81-0.63,2.81
		h-11.07l8.78-37.14c1.73-4.9,4.87-7.35,9.41-7.35h21.65c3.08,0,5.58,1.15,7.5,3.46c1.92,2.31,2.57,4.97,1.95,7.98
		c-0.73,3.3-1.57,7.08-2.53,11.34c-0.53,2.15-1.67,3.91-3.41,5.29c-1.74,1.38-3.75,2.06-6.03,2.06h-4.06l8.71,14.43h-11.84
		L291.44,50.91z M306.74,39.63l1.7-7.12c0.07-0.4-0.03-0.76-0.3-1.08c-0.27-0.32-0.6-0.48-1-0.48h-17.09c-0.24,0-0.5,0.11-0.76,0.32
		c-0.27,0.21-0.44,0.47-0.53,0.78l-1.86,8.51h18.52C306.07,40.56,306.52,40.25,306.74,39.63z"/>
	<path class="st0" d="M323.63,28.16c1.73-4.92,4.89-7.38,9.48-7.38h30.72l-2.36,10.21h-17.89h-8.61c-0.24,0-0.5,0.1-0.76,0.3
		c-0.27,0.2-0.45,0.47-0.56,0.8l-1.36,5.88h18.05l-2.26,10.17h-18.15l-1.26,5.42c-0.07,0.42,0.03,0.79,0.3,1.1
		c0.27,0.31,0.6,0.47,1,0.47h13.73v0.03h12.17c-0.71,3.1-1.5,6.49-2.36,10.17h-26.27c-3.13,0-5.66-1.15-7.6-3.46
		c-1.94-2.3-2.6-4.97-1.98-7.98L323.63,28.16z"/>
	<path class="st0" d="M367.06,28.16c1.75-4.92,4.82-7.38,9.21-7.38h32.49l-10.81,44.56h-10.57l2.99-12.3l5.39-22.05H377.8
		c-0.24,0-0.49,0.1-0.75,0.3c-0.25,0.2-0.43,0.47-0.52,0.8l-2.63,10.77h15.86l-2.49,10.21h-15.83l-2.99,12.27h-10.51L367.06,28.16z"
		/>
	<path class="st0" d="M424.65,30.92h-14.76l2.49-10.14h39.53l-2.49,10.14h-14.33l-7.28,34.41h-10.57L424.65,30.92z"/>
	<path class="st0" d="M454.27,28.16c1.95-4.92,5.35-7.38,10.21-7.38c0.02,0,0.06,0,0.1,0c0.04,0,0.13,0,0.25,0c0.12,0,0.29,0,0.5,0
		c0.21,0,0.48,0,0.81,0c0.33,0,0.74,0,1.21,0c0.48,0,1.04,0,1.7,0c0.65,0,1.41,0,2.26,0c0.85,0,1.82,0,2.89,0c1.08,0,2.28,0,3.61,0
		c1.33,0,2.8,0,4.41,0c1.61,0,3.37,0,5.3,0c3.28,0,5.95,1.15,8,3.46c2.05,2.31,2.75,4.97,2.11,7.98c0,0.02-0.01,0.07-0.03,0.13
		c-0.02,0.07-0.05,0.16-0.08,0.28c-0.03,0.12-0.08,0.31-0.13,0.55c-0.06,0.24-0.13,0.55-0.22,0.91c-0.09,0.37-0.2,0.81-0.33,1.35
		c-0.13,0.53-0.29,1.16-0.47,1.9c-0.18,0.73-0.38,1.57-0.62,2.53c-0.23,0.95-0.49,2.03-0.78,3.23c-0.29,1.2-0.62,2.54-0.98,4.02
		c-0.37,1.48-0.76,3.13-1.2,4.94c-0.43,1.81-0.91,3.77-1.45,5.9c-1.75,4.92-5.14,7.38-10.17,7.38c-0.02,0-0.06,0-0.12,0
		c-0.06,0-0.14,0-0.25,0c-0.11,0-0.27,0-0.48,0c-0.21,0-0.48,0-0.81,0c-0.33,0-0.73,0-1.2,0s-1.03,0-1.68,0c-0.65,0-1.4,0-2.24,0
		s-1.8,0-2.86,0s-2.26,0-3.59,0c-1.33,0-2.79,0-4.39,0s-3.35,0-5.25,0c-3.37,0-6.07-1.15-8.11-3.46c-2.04-2.3-2.76-4.97-2.16-7.98
		c0-0.02,0-0.07,0.02-0.13c0.01-0.07,0.03-0.16,0.07-0.28c0.03-0.12,0.08-0.3,0.13-0.55c0.06-0.24,0.13-0.55,0.23-0.92
		c0.1-0.37,0.21-0.81,0.33-1.35c0.12-0.53,0.27-1.16,0.45-1.9c0.18-0.73,0.38-1.57,0.62-2.53s0.5-2.03,0.8-3.23
		c0.3-1.2,0.63-2.54,0.98-4.02c0.35-1.48,0.75-3.13,1.2-4.94C453.28,32.26,453.76,30.29,454.27,28.16z M479.21,55.13
		c0.69,0,1.15-0.37,1.4-1.1c0-0.02,0.01-0.05,0.02-0.1c0.01-0.04,0.03-0.12,0.05-0.23c0.02-0.11,0.06-0.27,0.12-0.47
		c0.06-0.2,0.12-0.45,0.18-0.75c0.07-0.3,0.15-0.68,0.27-1.13c0.11-0.45,0.24-0.98,0.4-1.58c0.15-0.6,0.33-1.3,0.52-2.09
		c0.19-0.8,0.4-1.7,0.65-2.71c0.24-1.01,0.52-2.13,0.83-3.38c0.31-1.24,0.65-2.61,1.01-4.11c0.37-1.5,0.77-3.14,1.21-4.94
		c0.07-0.42-0.02-0.79-0.27-1.1c-0.24-0.31-0.62-0.47-1.13-0.47c-0.02,0-0.06,0-0.12,0c-0.06,0-0.14,0-0.27,0c-0.12,0-0.29,0-0.5,0
		c-0.21,0-0.49,0-0.83,0c-0.34,0-0.75,0-1.23,0c-0.48,0-1.05,0-1.71,0c-0.67,0-1.43,0-2.29,0c-0.86,0-1.84,0-2.94,0
		c-1.1,0-2.32,0-3.67,0c-1.35,0-2.84,0-4.46,0c-0.71,0-1.18,0.37-1.4,1.1c0,0.02-0.01,0.06-0.02,0.1c-0.01,0.04-0.03,0.12-0.07,0.23
		c-0.03,0.11-0.07,0.27-0.12,0.47c-0.04,0.2-0.11,0.45-0.18,0.75c-0.08,0.3-0.17,0.68-0.28,1.13c-0.11,0.45-0.24,0.98-0.38,1.58
		c-0.14,0.6-0.31,1.3-0.5,2.09c-0.19,0.8-0.41,1.7-0.67,2.71c-0.26,1.01-0.53,2.13-0.83,3.38c-0.3,1.24-0.63,2.61-1,4.11
		c-0.37,1.5-0.77,3.14-1.21,4.94c-0.07,0.42,0.04,0.79,0.33,1.1c0.29,0.31,0.64,0.47,1.06,0.47c0.02,0,0.06,0,0.12,0
		c0.05,0,0.14,0,0.27,0c0.12,0,0.29,0,0.5,0c0.21,0,0.48,0,0.81,0c0.33,0,0.74,0,1.23,0s1.06,0,1.73,0s1.43,0,2.29,0
		c0.86,0,1.84,0,2.93,0c1.09,0,2.31,0,3.66,0C476.07,55.13,477.57,55.13,479.21,55.13z"/>
	<path class="st0" d="M514.09,50.91h-7.02c0.02-0.02,0.03-0.04,0.03-0.07c0-0.02,0-0.04,0-0.05s0-0.02,0-0.03s0-0.01,0,0.02
		c0,0.02-0.01,0.06-0.02,0.12c-0.01,0.05-0.03,0.13-0.05,0.22c-0.02,0.09-0.05,0.2-0.08,0.35c-0.03,0.14-0.08,0.32-0.13,0.52
		c-0.06,0.2-0.11,0.43-0.17,0.7c-0.06,0.27-0.12,0.57-0.2,0.91c-0.08,0.34-0.17,0.74-0.27,1.18c-0.1,0.44-0.21,0.93-0.33,1.45
		c-0.12,0.52-0.26,1.1-0.42,1.73c-0.15,0.63-0.32,1.32-0.48,2.08c-0.17,0.75-0.35,1.57-0.55,2.44c-0.2,0.88-0.41,1.81-0.63,2.81
		h-11.07l8.78-37.14c1.73-4.9,4.87-7.35,9.41-7.35h21.65c3.08,0,5.58,1.15,7.5,3.46c1.92,2.31,2.57,4.97,1.95,7.98
		c-0.73,3.3-1.57,7.08-2.53,11.34c-0.53,2.15-1.67,3.91-3.41,5.29c-1.74,1.38-3.75,2.06-6.03,2.06h-4.06l8.71,14.43h-11.84
		L514.09,50.91z M529.38,39.63l1.7-7.12c0.07-0.4-0.03-0.76-0.3-1.08c-0.27-0.32-0.6-0.48-1-0.48h-17.09c-0.24,0-0.5,0.11-0.76,0.32
		c-0.27,0.21-0.44,0.47-0.53,0.78l-1.86,8.51h18.52C528.72,40.56,529.16,40.25,529.38,39.63z"/>
	<path class="st0" d="M557.51,30.99c-0.31,0-0.58,0.09-0.8,0.28c-0.22,0.19-0.38,0.41-0.47,0.65c0,0.02-0.01,0.06-0.03,0.1
		c-0.02,0.04-0.04,0.12-0.07,0.23c-0.02,0.11-0.06,0.27-0.1,0.48c-0.04,0.21-0.11,0.47-0.18,0.78c-0.08,0.31-0.17,0.7-0.28,1.16
		c-0.11,0.47-0.24,1.01-0.4,1.63c-0.07,0.42,0.02,0.79,0.27,1.1c0.24,0.31,0.56,0.47,0.96,0.47c0.02,0,0.05,0,0.1,0
		c0.04,0,0.12,0,0.22,0c0.1,0,0.25,0,0.45,0c0.2,0,0.45,0,0.75,0c0.3,0,0.67,0,1.1,0c0.43,0,0.95,0,1.55,0c0.6,0,1.28,0,2.06,0
		c0.78,0,1.66,0,2.64,0c0.99,0,2.09,0,3.31,0s2.56,0,4.02,0c2.99,0,5.38,1.16,7.17,3.48c1.78,2.32,2.33,4.98,1.65,8
		c0,0.02-0.01,0.05-0.02,0.1s-0.03,0.12-0.05,0.22c-0.02,0.1-0.06,0.24-0.1,0.43c-0.04,0.19-0.11,0.43-0.18,0.71
		c-0.08,0.29-0.17,0.65-0.27,1.08c-0.1,0.43-0.22,0.94-0.37,1.51c-0.15,0.58-0.31,1.24-0.5,1.99c-0.19,0.75-0.39,1.61-0.62,2.56
		c-0.58,2.17-1.73,3.95-3.46,5.32c-1.73,1.38-3.74,2.06-6.02,2.06c-0.02,0-0.06,0-0.12,0c-0.06,0-0.15,0-0.28,0
		c-0.13,0-0.32,0-0.55,0c-0.23,0-0.53,0-0.9,0c-0.37,0-0.81,0-1.35,0s-1.16,0-1.9,0s-1.57,0-2.51,0s-2.01,0-3.21,0
		c-1.2,0-2.53,0-4.01,0c-1.47,0-3.11,0-4.9,0c-1.8,0-3.76,0-5.89,0c-2.13,0-4.44,0-6.95,0c0-0.02,0-0.06,0.02-0.12
		c0.01-0.05,0.03-0.14,0.07-0.27c0.03-0.12,0.08-0.29,0.13-0.51s0.13-0.51,0.22-0.86c0.09-0.35,0.19-0.79,0.3-1.3
		c0.11-0.51,0.25-1.11,0.42-1.81c0.17-0.7,0.36-1.5,0.58-2.41c0.22-0.91,0.47-1.93,0.73-3.06c0.02,0,0.06,0,0.12,0
		c0.05,0,0.14,0,0.25,0c0.11,0,0.27,0,0.48,0c0.21,0,0.48,0,0.8,0c0.32,0,0.71,0,1.18,0c0.47,0,1.01,0,1.65,0s1.36,0,2.19,0
		c0.83,0,1.77,0,2.83,0c1.05,0,2.23,0,3.54,0c1.31,0,2.75,0,4.32,0c1.57,0,3.3,0,5.17,0c1.87,0,3.91,0,6.1,0
		c0.62,0,1.05-0.32,1.3-0.96c0-0.02,0-0.05,0.02-0.1c0.01-0.04,0.03-0.12,0.05-0.23c0.02-0.11,0.06-0.27,0.12-0.48
		c0.05-0.21,0.12-0.47,0.2-0.78c0.08-0.31,0.17-0.7,0.28-1.16c0.11-0.47,0.23-1.01,0.37-1.63c0.15-0.4,0.12-0.76-0.12-1.08
		c-0.23-0.32-0.55-0.48-0.95-0.48c0.02,0,0.03,0,0.02,0c-0.01,0-0.04,0-0.1,0c-0.06,0-0.13,0-0.23,0c-0.1,0-0.25,0-0.45,0
		c-0.2,0-0.45,0-0.76,0s-0.68,0-1.11,0c-0.43,0-0.95,0-1.55,0s-1.29,0-2.08,0c-0.79,0-1.68,0-2.68,0s-2.11,0-3.34,0
		c-1.23,0-2.58,0-4.04,0c-2.99,0-5.39-1.14-7.18-3.41c-1.8-2.27-2.35-4.95-1.66-8.03c0-0.02,0-0.06,0.02-0.1
		c0.01-0.04,0.03-0.12,0.07-0.23c0.03-0.11,0.07-0.26,0.12-0.45c0.04-0.19,0.1-0.43,0.17-0.71c0.07-0.29,0.15-0.64,0.27-1.06
		c0.11-0.42,0.23-0.93,0.37-1.51c0.13-0.59,0.29-1.26,0.48-2.01c0.19-0.75,0.4-1.61,0.65-2.56c1.88-4.81,5.03-7.22,9.44-7.22
		c0.02,0,0.06,0,0.12,0c0.05,0,0.15,0,0.28,0s0.32,0,0.57,0c0.24,0,0.55,0,0.91,0c0.37,0,0.81,0,1.35,0s1.16,0,1.9,0
		c0.73,0,1.57,0,2.51,0c0.94,0,2.02,0,3.23,0c1.21,0,2.55,0,4.04,0c1.48,0,3.13,0,4.92,0c1.79,0,3.77,0,5.92,0c2.15,0,4.48,0,6.98,0
		c0,0.02-0.01,0.06-0.02,0.12c-0.01,0.06-0.03,0.14-0.07,0.27c-0.03,0.12-0.08,0.29-0.13,0.52c-0.06,0.22-0.13,0.5-0.23,0.85
		c-0.1,0.34-0.21,0.76-0.33,1.26c-0.12,0.5-0.27,1.09-0.45,1.78c-0.18,0.69-0.38,1.48-0.62,2.38c-0.23,0.9-0.49,1.91-0.78,3.04
		c-0.02,0-0.06,0-0.1,0c-0.04,0-0.13,0-0.25,0s-0.28,0-0.48,0c-0.2,0-0.47,0-0.8,0c-0.33,0-0.73,0-1.2,0s-1.01,0-1.65,0
		c-0.63,0-1.36,0-2.19,0c-0.83,0-1.77,0-2.83,0c-1.05,0-2.23,0-3.52,0c-1.3,0-2.73,0-4.31,0c-1.57,0-3.3,0-5.19,0
		C561.75,30.99,559.71,30.99,557.51,30.99z"/>
	<g>
		<path d="M614.6,31.01h11.01l-7.94,33.37c-0.04,0.22-0.11,0.45-0.2,0.69H606.3c0.15-0.22,0.28-0.45,0.36-0.69L614.6,31.01z
			 M616.92,20.76h11.01l-1.65,7.31h-11.01L616.92,20.76z"/>
		<path d="M630.34,28.1c1.94-4.9,5.32-7.34,10.15-7.34c0.02,0,0.05,0,0.1,0c0.04,0,0.13,0,0.25,0c0.12,0,0.29,0,0.5,0
			c0.21,0,0.48,0,0.81,0s0.73,0,1.21,0c0.47,0,1.04,0,1.69,0c0.65,0,1.4,0,2.25,0c0.85,0,1.81,0,2.88,0s2.27,0,3.59,0
			c1.32,0,2.78,0,4.38,0c1.6,0,3.36,0,5.28,0c3.26,0,5.91,1.15,7.95,3.44c2.04,2.29,2.74,4.94,2.1,7.94c0,0.02-0.01,0.07-0.03,0.13
			s-0.05,0.16-0.08,0.28c-0.03,0.12-0.08,0.3-0.13,0.55c-0.06,0.24-0.13,0.55-0.22,0.91c-0.09,0.36-0.2,0.81-0.33,1.34
			c-0.13,0.53-0.29,1.16-0.46,1.89s-0.38,1.57-0.61,2.51c-0.23,0.95-0.49,2.02-0.78,3.21c-0.29,1.19-0.61,2.53-0.98,4
			c-0.36,1.48-0.76,3.11-1.19,4.91c-0.43,1.8-0.91,3.75-1.44,5.87c-1.74,4.9-5.12,7.34-10.12,7.34c-0.02,0-0.06,0-0.12,0
			c-0.06,0-0.14,0-0.25,0c-0.11,0-0.27,0-0.48,0c-0.21,0-0.48,0-0.81,0c-0.33,0-0.73,0-1.19,0c-0.46,0-1.02,0-1.67,0s-1.39,0-2.23,0
			c-0.84,0-1.79,0-2.84,0c-1.06,0-2.25,0-3.57,0c-1.32,0-2.78,0-4.37,0s-3.33,0-5.23,0c-3.35,0-6.04-1.15-8.07-3.44
			c-2.03-2.29-2.74-4.94-2.15-7.94c0-0.02,0.01-0.07,0.02-0.13c0.01-0.07,0.03-0.16,0.07-0.28c0.03-0.12,0.08-0.3,0.13-0.55
			c0.05-0.24,0.13-0.55,0.23-0.91c0.1-0.36,0.21-0.81,0.33-1.34c0.12-0.53,0.27-1.16,0.45-1.89s0.38-1.57,0.61-2.51
			c0.23-0.95,0.5-2.02,0.79-3.21c0.3-1.19,0.62-2.52,0.98-4c0.35-1.48,0.75-3.11,1.19-4.91C629.36,32.18,629.84,30.22,630.34,28.1z
			 M655.15,54.93c0.68,0,1.15-0.36,1.39-1.09c0-0.02,0-0.05,0.02-0.1c0.01-0.04,0.03-0.12,0.05-0.23c0.02-0.11,0.06-0.26,0.12-0.46
			c0.05-0.2,0.12-0.45,0.18-0.74c0.07-0.3,0.15-0.67,0.26-1.12c0.11-0.45,0.24-0.98,0.4-1.57c0.15-0.6,0.33-1.29,0.51-2.08
			c0.19-0.79,0.4-1.69,0.64-2.7c0.24-1,0.52-2.12,0.83-3.36c0.31-1.23,0.64-2.6,1.01-4.08c0.36-1.49,0.77-3.13,1.21-4.91
			c0.07-0.42-0.02-0.78-0.26-1.09c-0.24-0.31-0.62-0.46-1.12-0.46c-0.02,0-0.06,0-0.12,0c-0.06,0-0.14,0-0.26,0s-0.29,0-0.5,0
			c-0.21,0-0.49,0-0.83,0c-0.34,0-0.75,0-1.22,0c-0.47,0-1.04,0-1.7,0c-0.66,0-1.42,0-2.28,0c-0.86,0-1.83,0-2.93,0
			c-1.09,0-2.31,0-3.65,0c-1.35,0-2.82,0-4.43,0c-0.71,0-1.17,0.36-1.39,1.09c0,0.02-0.01,0.06-0.02,0.1
			c-0.01,0.04-0.03,0.12-0.07,0.23c-0.03,0.11-0.07,0.26-0.12,0.46c-0.04,0.2-0.11,0.45-0.18,0.74c-0.08,0.3-0.17,0.67-0.28,1.12
			c-0.11,0.45-0.24,0.98-0.38,1.57c-0.14,0.6-0.31,1.29-0.5,2.08c-0.19,0.79-0.41,1.69-0.66,2.7c-0.25,1-0.53,2.12-0.83,3.36
			c-0.3,1.23-0.63,2.6-0.99,4.08s-0.77,3.13-1.21,4.91c-0.07,0.42,0.04,0.78,0.33,1.09c0.29,0.31,0.64,0.46,1.06,0.46
			c0.02,0,0.06,0,0.12,0c0.05,0,0.14,0,0.26,0c0.12,0,0.29,0,0.5,0c0.21,0,0.48,0,0.81,0c0.33,0,0.74,0,1.22,0c0.48,0,1.06,0,1.72,0
			c0.66,0,1.42,0,2.28,0c0.86,0,1.83,0,2.91,0c1.08,0,2.29,0,3.64,0C652.03,54.93,653.52,54.93,655.15,54.93z"/>
	</g>
	<polygon points="586.68,56.19 600.47,56.19 598.4,65.34 584.61,65.34 	"/>
</g>
</svg>
