<?xml version="1.0" encoding="utf-8"?>
<!-- Generator: Adobe Illustrator 27.1.1, SVG Export Plug-In . SVG Version: 6.00 Build 0)  -->
<svg version="1.1" id="Layer_1" xmlns="http://www.w3.org/2000/svg" xmlns:xlink="http://www.w3.org/1999/xlink" x="0px" y="0px"
	 viewBox="0 0 720 86.1" style="enable-background:new 0 0 720 86.1;" xml:space="preserve">
<style type="text/css">
	.st0{fill:#00E59B;}
	.st1{fill:url(#SVGID_1_);}
	.st2{fill:url(#SVGID_00000173125180483465772100000000550834543847009408_);}
	.st3{fill:url(#SVGID_00000149379893783883801400000014928267973014689425_);}
	.st4{fill:#FFFFFF;}
	.st5{fill:url(#SVGID_00000045618020402213442080000000390080153052957568_);}
	.st6{fill:url(#SVGID_00000164482406485747378700000006691504465600480643_);}
	.st7{fill:url(#SVGID_00000163060192142842350940000014941157569874061962_);}
	.st8{fill:url(#SVGID_00000155838542752401457160000006670814289158711479_);}
	.st9{fill:url(#SVGID_00000037669844683808933120000000492173086986797479_);}
	.st10{fill:url(#SVGID_00000075883054753483646800000008245691331609612170_);}
	.st11{fill:url(#SVGID_00000127011982141307266660000014003519370194247557_);}
	.st12{fill:url(#SVGID_00000053530834958317077240000003629128159134269326_);}
	.st13{fill:url(#SVGID_00000157277408299114506730000009140006994132415911_);}
</style>
<rect y="0" width="720" height="86.1"/>
<g>
	<path class="st4" d="M24.71,26.81c1.89-5.37,5.33-8.05,10.33-8.05h37.28L69.67,30V29.9h-12h-20.6c-0.27,0-0.54,0.11-0.83,0.33
		c-0.29,0.22-0.5,0.51-0.62,0.87l-5.48,23.42c-0.07,0.46,0.04,0.86,0.33,1.2c0.29,0.34,0.66,0.51,1.12,0.51h18.78
		c0.27,0,0.54-0.11,0.82-0.33c0.28-0.22,0.43-0.51,0.45-0.87l1.52-6.42H34.5l2.47-11.1H57.6h10.3c-1.06,4.57-2.44,10.42-4.13,17.55
		c-0.31,1.38-0.65,2.79-1.02,4.24c-1.89,5.37-5.34,8.05-10.37,8.05H28.55c-3.38,0-6.13-1.26-8.25-3.77
		c-2.12-2.51-2.83-5.41-2.16-8.7L24.71,26.81z"/>
	<path class="st4" d="M75.55,26.81c1.91-5.37,5.26-8.05,10.04-8.05h35.43l-11.78,48.59H97.7l3.26-13.42l5.87-24.04H87.26
		c-0.27,0-0.54,0.11-0.82,0.33c-0.28,0.22-0.47,0.51-0.56,0.87l-2.86,11.75h17.3l-2.72,11.13H80.33l-3.26,13.38H65.61L75.55,26.81z"
		/>
	<path class="st4" d="M160.59,67.35c-0.74,0-1.41,0-2.03,0c-0.62,0-1.18,0-1.7,0c-0.52,0-0.99,0-1.41,0c-0.42,0-0.8,0-1.14,0
		s-0.64,0-0.91,0s-0.5,0-0.71,0c-0.21,0-0.38,0-0.51,0c-0.13,0-0.25,0-0.34,0s-0.18,0-0.24,0c-0.06,0-0.1,0-0.13,0
		c-0.02,0-0.05,0-0.07,0c1.14-4.47,2.1-8.27,2.88-11.4s1.42-5.7,1.9-7.7c0.48-2.01,0.85-3.57,1.11-4.7
		c0.25-1.12,0.48-2.11,0.67-2.95c-5.71,8.53-11.06,16.27-16.06,23.21c-1.72,0-3.25-0.54-4.61-1.61c-1.35-1.07-2.24-2.48-2.65-4.22
		c-0.27-1.28-0.51-2.48-0.73-3.61c-0.22-1.12-0.42-2.17-0.62-3.14c-0.19-0.97-0.37-1.86-0.53-2.67c-0.16-0.81-0.3-1.55-0.43-2.23
		c-0.13-0.68-0.25-1.29-0.36-1.83c-0.11-0.54-0.21-1.03-0.29-1.47c-0.08-0.43-0.16-0.82-0.22-1.14c-0.06-0.33-0.11-0.61-0.16-0.85
		c-0.05-0.24-0.09-0.45-0.13-0.63c-0.04-0.18-0.07-0.33-0.09-0.43c-0.02-0.11-0.04-0.19-0.05-0.25c-0.01-0.06-0.02-0.1-0.02-0.13
		c-1.14,4.67-2.1,8.62-2.88,11.88c-0.79,3.25-1.42,5.92-1.9,8.01c-0.48,2.09-0.85,3.71-1.11,4.86c-0.25,1.15-0.48,2.16-0.67,3.03
		c-0.85,0-1.64,0-2.38,0c-0.74,0-1.41,0-2.03,0c-0.62,0-1.18,0-1.7,0c-0.52,0-1,0-1.43,0c-0.43,0-0.82,0-1.16,0s-0.64,0-0.91,0
		s-0.5,0-0.71,0c-0.21,0-0.38,0-0.53,0c-0.14,0-0.27,0-0.36,0s-0.18,0-0.24,0s-0.1,0-0.13,0c-0.02,0-0.05,0-0.07,0
		c0.72-3.07,1.4-5.93,2.03-8.59c0.63-2.66,1.2-5.12,1.72-7.38c0.52-2.26,1-4.34,1.45-6.24c0.45-1.9,0.86-3.63,1.23-5.2
		c0.37-1.57,0.71-2.99,1.02-4.26c0.3-1.27,0.57-2.41,0.8-3.41c0.23-1,0.43-1.88,0.62-2.65c0.18-0.76,0.34-1.43,0.47-1.99
		c0.13-0.57,0.25-1.04,0.34-1.43c0.1-0.39,0.17-0.71,0.22-0.96c0.05-0.25,0.09-0.45,0.13-0.58c0.04-0.13,0.06-0.23,0.07-0.29
		c0.01-0.06,0.02-0.1,0.04-0.11c0.01-0.01,0.01-0.02-0.02-0.02c1.33-3.65,3.71-5.48,7.14-5.48c0.75,0,1.42,0,2.01,0
		c0.59,0,1.11,0,1.56,0c0.45,0,0.84,0,1.18,0s0.63,0,0.87,0c0.24,0,0.44,0,0.6,0c0.16,0,0.28,0,0.36,0c0.08,0,0.15,0,0.2,0
		c0.05,0,0.08,0,0.11,0c0.31,1.52,0.61,2.96,0.89,4.32c0.28,1.35,0.54,2.62,0.78,3.81c0.24,1.18,0.47,2.3,0.69,3.35
		c0.22,1.05,0.42,2.03,0.6,2.94c0.18,0.91,0.35,1.75,0.51,2.52c0.16,0.77,0.3,1.49,0.43,2.16c0.13,0.66,0.25,1.27,0.36,1.81
		c0.11,0.54,0.21,1.04,0.29,1.49c0.08,0.45,0.16,0.85,0.24,1.21c0.07,0.36,0.13,0.68,0.18,0.96c0.05,0.28,0.1,0.53,0.15,0.74
		c0.05,0.22,0.08,0.4,0.11,0.54c0.02,0.14,0.04,0.27,0.06,0.38c0.01,0.11,0.02,0.19,0.04,0.25c0.01,0.06,0.02,0.1,0.04,0.13
		c0.01,0.02,0.02,0.05,0.02,0.07h-0.04c1.6-2.27,3.06-4.36,4.39-6.27c1.33-1.91,2.54-3.64,3.64-5.2c1.1-1.56,2.09-2.97,2.97-4.22
		c0.88-1.26,1.67-2.38,2.37-3.37c0.7-0.99,1.32-1.86,1.85-2.61c0.53-0.75,0.99-1.39,1.38-1.92c0.39-0.53,0.72-0.99,1-1.36
		c0.28-0.37,0.5-0.67,0.67-0.89c0.17-0.22,0.3-0.39,0.38-0.51c0.08-0.12,0.18-0.23,0.27-0.33c1.33,0,2.53,0,3.59,0
		c1.06,0,2.01,0,2.85,0c0.83,0,1.58,0,2.23,0s1.21,0,1.69,0s0.87,0,1.2,0c0.33,0,0.59,0,0.8,0c0.21,0,0.37,0,0.49,0
		c0.12,0,0.2,0,0.25,0c0.05,0,0.08,0,0.11,0c-0.77,3.24-1.49,6.27-2.14,9.08c-0.65,2.82-1.27,5.44-1.85,7.87
		c-0.58,2.43-1.11,4.68-1.6,6.76c-0.48,2.08-0.93,3.99-1.34,5.73c-0.41,1.74-0.79,3.32-1.12,4.75c-0.34,1.43-0.65,2.73-0.92,3.9
		c-0.28,1.17-0.53,2.22-0.74,3.14c-0.22,0.92-0.41,1.73-0.56,2.43c-0.16,0.7-0.3,1.31-0.42,1.83c-0.12,0.52-0.22,0.96-0.31,1.31
		c-0.08,0.35-0.16,0.64-0.22,0.87c-0.06,0.23-0.1,0.41-0.13,0.54c-0.02,0.13-0.04,0.22-0.06,0.27c-0.01,0.05-0.03,0.08-0.05,0.11
		C162.12,67.35,161.33,67.35,160.59,67.35z"/>
	<path class="st4" d="M176.53,26.81c1.88-5.37,5.33-8.05,10.33-8.05h33.5l-2.57,11.13h-19.51h-9.39c-0.27,0-0.54,0.11-0.83,0.33
		c-0.29,0.22-0.5,0.51-0.62,0.87l-1.49,6.42h19.69l-2.47,11.1h-19.8l-1.38,5.91c-0.07,0.46,0.04,0.86,0.33,1.2
		c0.29,0.34,0.65,0.51,1.09,0.51h14.98v0.04h13.27c-0.77,3.38-1.63,7.08-2.57,11.1h-28.65c-3.41,0-6.17-1.26-8.29-3.77
		c-2.12-2.51-2.83-5.41-2.16-8.7L176.53,26.81z"/>
	<path class="st0" d="M224.47,26.81c1.93-5.37,5.4-8.05,10.41-8.05h33.5l-2.68,11.13h-19.51h-9.39c-0.27,0-0.54,0.11-0.83,0.33
		c-0.29,0.22-0.5,0.51-0.62,0.87l-5.66,23.42c-0.07,0.46,0.04,0.86,0.33,1.2c0.29,0.34,0.66,0.51,1.12,0.51h14.94v0.04h13.31
		c-0.82,3.38-1.72,7.08-2.68,11.1h-28.68c-3.38,0-6.13-1.26-8.23-3.77c-2.1-2.51-2.8-5.41-2.1-8.7L224.47,26.81z"/>
	<path class="st0" d="M285.24,51.62h-7.65c0.02-0.02,0.04-0.05,0.04-0.07c0-0.02,0-0.04,0-0.05s0-0.02,0-0.04c0-0.01,0-0.01,0,0.02
		c0,0.02-0.01,0.07-0.02,0.13c-0.01,0.06-0.03,0.14-0.06,0.24c-0.02,0.1-0.05,0.22-0.09,0.38c-0.04,0.16-0.08,0.34-0.15,0.56
		c-0.06,0.22-0.12,0.47-0.18,0.76c-0.06,0.29-0.13,0.62-0.22,1c-0.08,0.37-0.18,0.8-0.29,1.29c-0.11,0.48-0.23,1.01-0.36,1.58
		c-0.13,0.57-0.28,1.2-0.45,1.88c-0.17,0.69-0.34,1.44-0.53,2.27c-0.18,0.82-0.38,1.71-0.6,2.66c-0.22,0.96-0.45,1.98-0.69,3.07
		h-12.07l9.57-40.5c1.89-5.34,5.31-8.01,10.26-8.01h23.61c3.36,0,6.09,1.26,8.18,3.77c2.09,2.51,2.8,5.42,2.12,8.7
		c-0.8,3.6-1.72,7.72-2.76,12.36c-0.58,2.35-1.82,4.27-3.72,5.77c-1.9,1.5-4.09,2.25-6.58,2.25h-4.42l9.5,15.74h-12.91L285.24,51.62
		z M301.92,39.32l1.85-7.76c0.07-0.43-0.04-0.83-0.33-1.18c-0.29-0.35-0.65-0.53-1.09-0.53h-18.64c-0.27,0-0.54,0.11-0.83,0.34
		c-0.29,0.23-0.48,0.51-0.58,0.85l-2.03,9.28h20.2C301.19,40.34,301.68,40,301.92,39.32z"/>
	<path class="st0" d="M320.34,26.81c1.88-5.37,5.33-8.05,10.33-8.05h33.5L361.6,29.9h-19.51h-9.39c-0.27,0-0.54,0.11-0.83,0.33
		c-0.29,0.22-0.5,0.51-0.62,0.87l-1.49,6.42h19.69l-2.47,11.1h-19.8l-1.38,5.91c-0.07,0.46,0.04,0.86,0.33,1.2
		c0.29,0.34,0.65,0.51,1.09,0.51h14.98v0.04h13.27c-0.77,3.38-1.63,7.08-2.57,11.1h-28.65c-3.41,0-6.17-1.26-8.29-3.77
		c-2.12-2.51-2.83-5.41-2.16-8.7L320.34,26.81z"/>
	<path class="st0" d="M367.69,26.81c1.91-5.37,5.26-8.05,10.04-8.05h35.43l-11.78,48.59h-11.53l3.26-13.42l5.87-24.04h-19.58
		c-0.27,0-0.54,0.11-0.82,0.33c-0.28,0.22-0.47,0.51-0.56,0.87l-2.86,11.75h17.3l-2.72,11.13h-17.26l-3.26,13.38h-11.46
		L367.69,26.81z"/>
	<path class="st0" d="M430.5,29.82h-16.1l2.72-11.06h43.11l-2.72,11.06h-15.63l-7.94,37.53h-11.53L430.5,29.82z"/>
	<path class="st0" d="M462.8,26.81c2.13-5.37,5.84-8.05,11.13-8.05c0.02,0,0.06,0,0.11,0c0.05,0,0.14,0,0.27,0s0.31,0,0.54,0
		c0.23,0,0.53,0,0.89,0c0.36,0,0.8,0,1.32,0c0.52,0,1.14,0,1.85,0c0.71,0,1.53,0,2.47,0c0.93,0,1.98,0,3.15,0s2.48,0,3.93,0
		c1.45,0,3.05,0,4.8,0s3.68,0,5.78,0c3.58,0,6.48,1.26,8.72,3.77c2.24,2.51,3,5.42,2.3,8.7c0,0.02-0.01,0.07-0.04,0.15
		c-0.02,0.07-0.05,0.18-0.09,0.31c-0.04,0.13-0.08,0.33-0.15,0.6c-0.06,0.27-0.14,0.6-0.24,1c-0.1,0.4-0.22,0.89-0.36,1.47
		c-0.15,0.58-0.31,1.27-0.51,2.07c-0.19,0.8-0.42,1.72-0.67,2.76c-0.25,1.04-0.54,2.21-0.85,3.52c-0.31,1.31-0.67,2.77-1.07,4.39
		c-0.4,1.62-0.83,3.41-1.31,5.38c-0.47,1.97-1,4.12-1.58,6.44c-1.91,5.37-5.61,8.05-11.1,8.05c-0.02,0-0.07,0-0.13,0
		c-0.06,0-0.15,0-0.27,0c-0.12,0-0.3,0-0.53,0c-0.23,0-0.53,0-0.89,0c-0.36,0-0.8,0-1.31,0s-1.12,0-1.83,0c-0.71,0-1.53,0-2.45,0
		c-0.92,0-1.96,0-3.12,0s-2.47,0-3.92,0s-3.05,0-4.79,0c-1.74,0-3.65,0-5.73,0c-3.67,0-6.62-1.26-8.85-3.77
		c-2.22-2.51-3.01-5.41-2.36-8.7c0-0.02,0.01-0.07,0.02-0.14c0.01-0.07,0.04-0.18,0.07-0.31c0.04-0.13,0.08-0.33,0.15-0.6
		c0.06-0.27,0.15-0.6,0.25-1c0.11-0.4,0.23-0.89,0.36-1.47c0.13-0.58,0.3-1.27,0.49-2.07c0.19-0.8,0.42-1.72,0.67-2.76
		s0.54-2.21,0.87-3.52c0.33-1.31,0.68-2.77,1.07-4.39c0.39-1.62,0.82-3.41,1.3-5.38C461.73,31.28,462.25,29.13,462.8,26.81z
		 M490,56.22c0.75,0,1.26-0.4,1.52-1.2c0-0.02,0.01-0.06,0.02-0.11c0.01-0.05,0.03-0.13,0.05-0.25c0.02-0.12,0.07-0.29,0.13-0.51
		c0.06-0.22,0.13-0.49,0.2-0.82c0.07-0.33,0.17-0.74,0.29-1.23c0.12-0.5,0.27-1.07,0.43-1.72c0.17-0.65,0.36-1.41,0.56-2.28
		c0.21-0.87,0.44-1.86,0.71-2.95c0.27-1.1,0.57-2.33,0.91-3.68c0.34-1.35,0.71-2.85,1.11-4.48c0.4-1.63,0.84-3.43,1.32-5.38
		c0.07-0.46-0.02-0.86-0.29-1.2c-0.27-0.34-0.68-0.51-1.23-0.51c-0.02,0-0.07,0-0.13,0c-0.06,0-0.16,0-0.29,0c-0.13,0-0.31,0-0.54,0
		c-0.23,0-0.53,0-0.91,0c-0.38,0-0.82,0-1.34,0c-0.52,0-1.14,0-1.87,0s-1.56,0-2.5,0c-0.94,0-2.01,0-3.21,0c-1.2,0-2.53,0-4.01,0
		s-3.09,0-4.86,0c-0.77,0-1.28,0.4-1.52,1.2c0,0.02-0.01,0.06-0.02,0.11c-0.01,0.05-0.04,0.13-0.07,0.25
		c-0.04,0.12-0.08,0.29-0.13,0.51c-0.05,0.22-0.11,0.49-0.2,0.82c-0.08,0.33-0.19,0.74-0.31,1.23c-0.12,0.5-0.26,1.07-0.42,1.72
		c-0.16,0.65-0.34,1.41-0.54,2.28c-0.21,0.87-0.45,1.86-0.73,2.95c-0.28,1.1-0.58,2.33-0.91,3.68c-0.33,1.35-0.69,2.84-1.09,4.48
		c-0.4,1.63-0.84,3.43-1.32,5.38c-0.07,0.46,0.05,0.86,0.36,1.2c0.31,0.34,0.7,0.51,1.16,0.51c0.02,0,0.07,0,0.13,0
		c0.06,0,0.16,0,0.29,0s0.31,0,0.54,0c0.23,0,0.53,0,0.89,0c0.36,0,0.81,0,1.34,0s1.16,0,1.89,0s1.56,0,2.5,0c0.94,0,2.01,0,3.19,0
		c1.18,0,2.51,0,3.99,0C486.58,56.22,488.21,56.22,490,56.22z"/>
	<path class="st0" d="M528.04,51.62h-7.65c0.02-0.02,0.04-0.05,0.04-0.07c0-0.02,0-0.04,0-0.05s0-0.02,0-0.04c0-0.01,0-0.01,0,0.02
		c0,0.02-0.01,0.07-0.02,0.13c-0.01,0.06-0.03,0.14-0.06,0.24c-0.02,0.1-0.05,0.22-0.09,0.38c-0.04,0.16-0.08,0.34-0.15,0.56
		c-0.06,0.22-0.12,0.47-0.18,0.76c-0.06,0.29-0.13,0.62-0.22,1c-0.08,0.37-0.18,0.8-0.29,1.29c-0.11,0.48-0.23,1.01-0.36,1.58
		c-0.13,0.57-0.28,1.2-0.45,1.88c-0.17,0.69-0.34,1.44-0.53,2.27c-0.18,0.82-0.38,1.71-0.6,2.66c-0.22,0.96-0.45,1.98-0.69,3.07
		h-12.07l9.57-40.5c1.89-5.34,5.31-8.01,10.26-8.01h23.61c3.36,0,6.09,1.26,8.18,3.77c2.09,2.51,2.8,5.42,2.12,8.7
		c-0.8,3.6-1.72,7.72-2.76,12.36c-0.58,2.35-1.82,4.27-3.72,5.77c-1.9,1.5-4.09,2.25-6.58,2.25h-4.42l9.5,15.74h-12.91L528.04,51.62
		z M544.72,39.32l1.85-7.76c0.07-0.43-0.04-0.83-0.33-1.18c-0.29-0.35-0.65-0.53-1.09-0.53h-18.64c-0.27,0-0.54,0.11-0.83,0.34
		c-0.29,0.23-0.48,0.51-0.58,0.85l-2.03,9.28h20.2C543.99,40.34,544.47,40,544.72,39.32z"/>
	<path class="st0" d="M575.39,29.9c-0.34,0-0.63,0.1-0.87,0.31c-0.24,0.21-0.41,0.44-0.51,0.71c0,0.02-0.01,0.06-0.04,0.11
		c-0.02,0.05-0.05,0.13-0.07,0.25c-0.02,0.12-0.06,0.3-0.11,0.53c-0.05,0.23-0.12,0.51-0.2,0.85c-0.08,0.34-0.19,0.76-0.31,1.27
		c-0.12,0.51-0.27,1.1-0.44,1.78c-0.07,0.46,0.02,0.86,0.29,1.2c0.27,0.34,0.62,0.51,1.05,0.51c0.02,0,0.06,0,0.11,0
		c0.05,0,0.13,0,0.24,0c0.11,0,0.27,0,0.49,0c0.22,0,0.49,0,0.82,0c0.33,0,0.73,0,1.2,0c0.47,0,1.03,0,1.69,0c0.65,0,1.4,0,2.25,0
		c0.85,0,1.81,0,2.88,0s2.28,0,3.61,0s2.79,0,4.39,0c3.26,0,5.87,1.26,7.81,3.79c1.95,2.53,2.54,5.43,1.79,8.72
		c0,0.02-0.01,0.06-0.02,0.11c-0.01,0.05-0.03,0.13-0.05,0.24c-0.02,0.11-0.06,0.27-0.11,0.47c-0.05,0.2-0.12,0.46-0.2,0.78
		c-0.08,0.31-0.18,0.71-0.29,1.18c-0.11,0.47-0.24,1.02-0.4,1.65c-0.16,0.63-0.34,1.35-0.54,2.18c-0.21,0.82-0.43,1.75-0.67,2.79
		c-0.63,2.37-1.89,4.3-3.77,5.8c-1.89,1.5-4.07,2.25-6.56,2.25c-0.02,0-0.07,0-0.13,0c-0.06,0-0.16,0-0.31,0c-0.15,0-0.34,0-0.6,0
		s-0.58,0-0.98,0s-0.89,0-1.47,0s-1.27,0-2.07,0c-0.8,0-1.71,0-2.74,0s-2.19,0-3.5,0c-1.3,0-2.76,0-4.37,0c-1.61,0-3.39,0-5.35,0
		c-1.96,0-4.1,0-6.42,0s-4.85,0-7.58,0c0-0.02,0.01-0.07,0.02-0.13c0.01-0.06,0.04-0.16,0.07-0.29c0.04-0.13,0.08-0.32,0.14-0.56
		c0.06-0.24,0.14-0.56,0.24-0.94c0.1-0.39,0.2-0.86,0.33-1.41c0.12-0.56,0.27-1.22,0.45-1.98c0.18-0.76,0.39-1.64,0.63-2.63
		c0.24-0.99,0.51-2.1,0.8-3.34c0.02,0,0.07,0,0.13,0c0.06,0,0.15,0,0.27,0c0.12,0,0.3,0,0.53,0c0.23,0,0.52,0,0.87,0
		c0.35,0,0.78,0,1.29,0s1.11,0,1.79,0c0.69,0,1.49,0,2.39,0c0.91,0,1.93,0,3.08,0c1.15,0,2.44,0,3.86,0c1.43,0,3,0,4.71,0
		c1.72,0,3.6,0,5.64,0c2.04,0,4.26,0,6.65,0c0.68,0,1.15-0.35,1.41-1.05c0-0.02,0.01-0.06,0.02-0.11c0.01-0.05,0.03-0.13,0.05-0.25
		c0.02-0.12,0.07-0.3,0.13-0.53c0.06-0.23,0.13-0.51,0.22-0.85c0.08-0.34,0.19-0.76,0.31-1.27c0.12-0.51,0.25-1.1,0.4-1.78
		c0.17-0.43,0.13-0.83-0.13-1.18c-0.25-0.35-0.6-0.53-1.03-0.53c0.02,0,0.03,0,0.02,0c-0.01,0-0.05,0-0.11,0c-0.06,0-0.15,0-0.25,0
		c-0.11,0-0.27,0-0.49,0c-0.22,0-0.5,0-0.83,0c-0.34,0-0.74,0-1.21,0c-0.47,0-1.03,0-1.69,0c-0.65,0-1.41,0-2.27,0
		c-0.86,0-1.83,0-2.92,0c-1.09,0-2.3,0-3.64,0c-1.34,0-2.81,0-4.41,0c-3.26,0-5.87-1.24-7.83-3.72c-1.96-2.48-2.56-5.4-1.81-8.76
		c0-0.02,0.01-0.06,0.02-0.11c0.01-0.05,0.04-0.13,0.07-0.25c0.04-0.12,0.08-0.28,0.13-0.49c0.05-0.2,0.11-0.47,0.18-0.78
		c0.07-0.31,0.17-0.7,0.29-1.16c0.12-0.46,0.25-1.01,0.4-1.65s0.32-1.37,0.53-2.19c0.2-0.82,0.44-1.75,0.71-2.79
		c2.05-5.25,5.49-7.87,10.3-7.87c0.02,0,0.07,0,0.13,0c0.06,0,0.16,0,0.31,0c0.15,0,0.35,0,0.62,0c0.27,0,0.6,0,1,0s0.89,0,1.47,0
		c0.58,0,1.27,0,2.07,0c0.8,0,1.71,0,2.74,0s2.2,0,3.52,0c1.32,0,2.79,0,4.41,0c1.62,0,3.41,0,5.37,0c1.96,0,4.11,0,6.45,0
		c2.34,0,4.88,0,7.61,0c0,0.02-0.01,0.07-0.02,0.13c-0.01,0.06-0.04,0.16-0.07,0.29c-0.04,0.13-0.09,0.32-0.15,0.56
		c-0.06,0.24-0.15,0.55-0.25,0.92c-0.11,0.38-0.23,0.83-0.36,1.38c-0.13,0.54-0.3,1.19-0.49,1.94c-0.19,0.75-0.42,1.61-0.67,2.59
		c-0.25,0.98-0.54,2.09-0.85,3.32c-0.02,0-0.06,0-0.11,0c-0.05,0-0.14,0-0.27,0s-0.31,0-0.53,0c-0.22,0-0.51,0-0.87,0
		c-0.36,0-0.8,0-1.31,0c-0.51,0-1.11,0-1.79,0c-0.69,0-1.49,0-2.39,0c-0.91,0-1.93,0-3.08,0s-2.43,0-3.84,0c-1.41,0-2.98,0-4.7,0
		c-1.72,0-3.6,0-5.66,0C580.01,29.9,577.79,29.9,575.39,29.9z"/>
	<g>
		<path class="st4" d="M637.65,29.92h12.01L641,66.32c-0.05,0.24-0.12,0.49-0.22,0.76H628.6c0.17-0.24,0.3-0.49,0.4-0.76
			L637.65,29.92z M640.17,18.74h12.01l-1.8,7.97h-12.01L640.17,18.74z"/>
		<path class="st4" d="M654.82,26.75c2.12-5.34,5.81-8.01,11.07-8.01c0.02,0,0.06,0,0.11,0s0.14,0,0.27,0c0.13,0,0.31,0,0.54,0
			c0.23,0,0.52,0,0.88,0c0.36,0,0.8,0,1.32,0c0.52,0,1.13,0,1.84,0c0.71,0,1.53,0,2.45,0c0.92,0,1.97,0,3.14,0c1.17,0,2.47,0,3.91,0
			c1.44,0,3.04,0,4.78,0c1.74,0,3.66,0,5.75,0c3.56,0,6.45,1.25,8.67,3.75c2.22,2.5,2.99,5.39,2.29,8.66c0,0.02-0.01,0.07-0.04,0.14
			c-0.02,0.07-0.05,0.18-0.09,0.31c-0.04,0.13-0.08,0.33-0.14,0.6c-0.06,0.26-0.14,0.59-0.23,0.99c-0.1,0.4-0.22,0.88-0.36,1.46
			s-0.31,1.26-0.51,2.06s-0.41,1.71-0.67,2.74c-0.25,1.03-0.54,2.2-0.85,3.5s-0.67,2.75-1.06,4.36c-0.4,1.61-0.83,3.4-1.3,5.36
			c-0.47,1.96-0.99,4.09-1.57,6.4c-1.9,5.34-5.58,8.01-11.04,8.01c-0.02,0-0.07,0-0.13,0c-0.06,0-0.15,0-0.27,0
			c-0.12,0-0.29,0-0.52,0c-0.23,0-0.52,0-0.88,0s-0.79,0-1.3,0s-1.11,0-1.82,0c-0.71,0-1.52,0-2.43,0c-0.91,0-1.95,0-3.1,0
			s-2.45,0-3.9,0c-1.44,0-3.03,0-4.76,0s-3.63,0-5.7,0c-3.66,0-6.59-1.25-8.8-3.75c-2.21-2.5-2.99-5.39-2.34-8.66
			c0-0.02,0.01-0.07,0.02-0.15c0.01-0.07,0.04-0.17,0.07-0.31c0.04-0.13,0.08-0.33,0.14-0.6c0.06-0.26,0.14-0.59,0.25-0.99
			c0.11-0.4,0.23-0.88,0.36-1.46c0.13-0.58,0.29-1.26,0.49-2.06c0.19-0.79,0.42-1.71,0.67-2.74c0.25-1.03,0.54-2.2,0.87-3.5
			c0.32-1.3,0.68-2.75,1.06-4.36c0.38-1.61,0.82-3.4,1.3-5.36C653.75,31.19,654.26,29.06,654.82,26.75z M681.87,56
			c0.75,0,1.25-0.4,1.51-1.19c0-0.02,0.01-0.06,0.02-0.11c0.01-0.05,0.03-0.13,0.05-0.25c0.02-0.12,0.07-0.29,0.13-0.5
			c0.06-0.22,0.13-0.49,0.2-0.81c0.07-0.33,0.17-0.73,0.29-1.23c0.12-0.49,0.26-1.06,0.43-1.71c0.17-0.65,0.35-1.41,0.56-2.27
			c0.2-0.87,0.44-1.85,0.7-2.94c0.26-1.09,0.56-2.31,0.9-3.66c0.34-1.35,0.7-2.83,1.1-4.45c0.4-1.62,0.84-3.41,1.32-5.36
			c0.07-0.46-0.02-0.85-0.29-1.19c-0.26-0.34-0.67-0.51-1.23-0.51c-0.02,0-0.07,0-0.13,0c-0.06,0-0.16,0-0.29,0
			c-0.13,0-0.31,0-0.54,0c-0.23,0-0.53,0-0.9,0c-0.37,0-0.82,0-1.33,0c-0.52,0-1.14,0-1.86,0c-0.72,0-1.55,0-2.49,0
			c-0.94,0-2,0-3.19,0c-1.19,0-2.52,0-3.99,0c-1.47,0-3.08,0-4.83,0c-0.77,0-1.27,0.4-1.51,1.19c0,0.02-0.01,0.06-0.02,0.11
			c-0.01,0.05-0.04,0.13-0.07,0.25c-0.04,0.12-0.08,0.29-0.13,0.51c-0.05,0.22-0.11,0.49-0.2,0.81c-0.08,0.32-0.19,0.73-0.31,1.23
			c-0.12,0.49-0.26,1.06-0.42,1.71c-0.16,0.65-0.34,1.41-0.54,2.27c-0.2,0.87-0.44,1.85-0.72,2.94c-0.28,1.09-0.58,2.31-0.9,3.66
			c-0.32,1.35-0.69,2.83-1.08,4.45c-0.4,1.62-0.84,3.41-1.32,5.36c-0.07,0.46,0.05,0.85,0.36,1.19c0.31,0.34,0.7,0.51,1.15,0.51
			c0.02,0,0.07,0,0.13,0c0.06,0,0.16,0,0.29,0c0.13,0,0.31,0,0.54,0c0.23,0,0.52,0,0.88,0c0.36,0,0.8,0,1.33,0s1.15,0,1.88,0
			c0.72,0,1.55,0,2.49,0c0.94,0,2,0,3.17,0c1.18,0,2.5,0,3.97,0C678.47,56,680.09,56,681.87,56z"/>
	</g>
	<polygon class="st4" points="607.2,57.38 622.24,57.38 619.98,67.36 604.94,67.36 	"/>
</g>
</svg>
