<svg xmlns="http://www.w3.org/2000/svg" xmlns:xlink="http://www.w3.org/1999/xlink" version="1.1" x="0px" y="0px" viewBox="0 0 100 125" enable-background="new 0 0 100 100" xml:space="preserve"><path d="M42.8544922,55.5854683c0.3442383,1.0146484,1.2963867,1.6962891,2.3671875,1.6962891h29.0375977  c1.0400391,0,1.9716797-0.6445312,2.3388672-1.6171875l10.1889648-27c0.2900391-0.7685547,0.184082-1.6298828-0.2827148-2.3046875  s-1.2353516-1.078125-2.0561523-1.078125H36.0517578c-0.8061523,0-1.5629883,0.3886719-2.0322266,1.0439453  c-0.4697266,0.6552734-0.5942383,1.4970703-0.3349609,2.2597656L42.8544922,55.5854683z M80.8325195,30.2817574l-8.3017578,22  H47.0126953l-7.4716797-22H80.8325195z M51.0297852,77.9305649c0,2.6316528-2.1332397,4.7649536-4.7648926,4.7648926  c-2.6314697,0.000061-4.7647705-2.1332397-4.7647705-4.7648315C41.5,75.2991562,43.6333008,73.1658554,46.2650146,73.1657333  C48.8965454,73.1657333,51.0297852,75.2990341,51.0297852,77.9305649z M80.999939,77.9306259  c0,2.6315308-2.1333008,4.7648315-4.7649536,4.7648315c-2.6314697,0-4.7648926-2.1333008-4.7647705-4.7648926  c0-2.6315308,2.1333008-4.7648315,4.7648926-4.7648315C78.8666382,73.1657333,80.999939,75.2989731,80.999939,77.9306259z   M89.871582,55.5952339l-4,12.0000038c-0.3491211,1.046875-1.324707,1.7099609-2.3710938,1.7099609  c-0.0964355,0-0.1937256-0.0119019-0.2909546-0.0234375H36.5c-1.0878906,0-2.0507812-0.703125-2.3818359-1.7402344  L19.6738281,22.2817574H12.5c-1.3808594,0-2.5-1.1191406-2.5-2.5s1.1191406-2.5,2.5-2.5h9  c1.0878906,0,2.0507812,0.703125,2.3818359,1.7402344l14.4443359,45.2597694h43.3793945l3.4228516-10.2685585  c0.4365234-1.3095703,1.8549805-2.0146484,3.1621094-1.5810547C89.6005859,52.8686714,90.3081055,54.284687,89.871582,55.5952339z"/></svg>