<svg width="20" height="21" viewBox="0 0 20 21" fill="none" xmlns="http://www.w3.org/2000/svg">
<g clip-path="url(#clip0_798_1679)">
<path d="M15 6.75C15 5.42392 14.4732 4.15215 13.5355 3.21447C12.5979 2.27678 11.3261 1.75 10 1.75C8.67392 1.75 7.40215 2.27678 6.46447 3.21447C5.52678 4.15215 5 5.42392 5 6.75C5 12.5833 2.5 14.25 2.5 14.25H17.5C17.5 14.25 15 12.5833 15 6.75Z" stroke="#F7F7F7" stroke-width="1.84985" stroke-linecap="round" stroke-linejoin="round"/>
<path d="M11.4409 17.5834C11.2944 17.8359 11.0842 18.0456 10.8311 18.1913C10.5781 18.337 10.2913 18.4138 9.99928 18.4138C9.7073 18.4138 9.42044 18.337 9.16743 18.1913C8.91441 18.0456 8.70413 17.8359 8.55762 17.5834" stroke="#F7F7F7" stroke-width="1.84985" stroke-linecap="round" stroke-linejoin="round"/>
</g>
<defs>
<clipPath id="clip0_798_1679">
<rect width="20" height="20" fill="white" transform="translate(0 0.5)"/>
</clipPath>
</defs>
</svg>
