<svg width="16" height="14" viewBox="0 0 16 14" fill="none" xmlns="http://www.w3.org/2000/svg">
<path fill-rule="evenodd" clip-rule="evenodd" d="M13.8325 8.4044C13.8245 8.41334 13.8162 8.42211 13.8076 8.43071L8.47233 13.766C8.34727 13.891 8.17764 13.9613 8.00077 13.9612H7.99971C7.82285 13.9613 7.65322 13.891 7.52815 13.766L2.19289 8.43071C2.18429 8.42211 2.17597 8.41333 2.16794 8.40439L1.67377 7.91022C-0.0598744 6.17658 -0.0598767 3.36578 1.67377 1.63214C3.40741 -0.101501 6.2182 -0.101501 7.95184 1.63214L8.00024 1.68054L8.04864 1.63214C9.78229 -0.101502 12.5931 -0.101501 14.3267 1.63214C16.0604 3.36578 16.0604 6.17658 14.3267 7.91022L13.8325 8.4044Z" fill="#E54E51"/>
</svg>
