<svg width="13" height="10" viewBox="0 0 13 10" fill="none" xmlns="http://www.w3.org/2000/svg">
<path d="M6.49992 0.625C3.58325 0.625 1.09242 2.43917 0.083252 5C1.09242 7.56083 3.58325 9.375 6.49992 9.375C9.41658 9.375 11.9074 7.56083 12.9166 5C11.9074 2.43917 9.41658 0.625 6.49992 0.625ZM6.49992 7.91667C4.88992 7.91667 3.58325 6.61 3.58325 5C3.58325 3.39 4.88992 2.08333 6.49992 2.08333C8.10992 2.08333 9.41658 3.39 9.41658 5C9.41658 6.61 8.10992 7.91667 6.49992 7.91667ZM6.49992 3.25C5.53159 3.25 4.74992 4.03167 4.74992 5C4.74992 5.96833 5.53159 6.75 6.49992 6.75C7.46825 6.75 8.24992 5.96833 8.24992 5C8.24992 4.03167 7.46825 3.25 6.49992 3.25Z" fill="#F7F7F7"/>
</svg>
