<svg xmlns="http://www.w3.org/2000/svg" xmlns:xlink="http://www.w3.org/1999/xlink" version="1.1" x="0px" y="0px" viewBox="0 0 100 125" enable-background="new 0 0 100 100" xml:space="preserve"><g><circle fill="#000000" cx="50" cy="50" r="4"/><path fill="#fff" d="M50,66c-8.822,0-16-7.178-16-16s7.178-16,16-16s16,7.178,16,16S58.822,66,50,66z M50,38   c-6.617,0-12,5.383-12,12c0,6.617,5.383,12,12,12c6.617,0,12-5.383,12-12C62,43.383,56.617,38,50,38z"/><path fill="#fff" d="M50,74c-14.794,0-27.372-6.544-43.415-22.586C6.211,51.039,6,50.53,6,50s0.211-1.039,0.586-1.414   C22.628,32.543,35.206,26,50,26c14.794,0,27.373,6.543,43.415,22.586c0.781,0.781,0.781,2.047,0,2.828   C77.372,67.456,64.794,74,50,74z M10.844,50C25.537,64.364,36.635,70,50,70s24.463-5.636,39.156-20C74.464,35.636,63.366,30,50,30   C36.634,30,25.536,35.636,10.844,50z"/></g></svg>